<svg width="200" height="100" viewBox="0 0 200 100" fill="none" xmlns="http://www.w3.org/2000/svg">
<path fill-rule="evenodd" clip-rule="evenodd" d="M141.009 33.5813L141.281 33.5933L141.556 33.6291L141.816 33.6849L142.06 33.7806L142.295 33.8922L142.529 34.0397L142.75 34.2011L142.954 34.3884L143.146 34.6066L143.304 34.8278L143.444 35.055L143.566 35.3001L143.652 35.5582L143.72 35.8173L143.762 36.0843L143.778 36.3564L143.762 36.6374L143.72 36.9104L143.652 37.1824L143.566 37.4216L143.46 37.6677L143.304 37.8998L143.146 38.1171L142.954 38.3293L142.75 38.5226L142.529 38.685L142.295 38.8345L142.06 38.9401L141.816 39.0378L141.556 39.1065L141.281 39.1474H141.009H140.73L140.461 39.1065L140.2 39.0378L139.949 38.9401L139.707 38.8345L139.483 38.685L139.266 38.5226L139.058 38.3293L138.865 38.1171L138.706 37.8998L138.57 37.6677L138.455 37.4216L138.357 37.1824L138.294 36.9104L138.267 36.6374L138.252 36.3564L138.267 36.0843L138.294 35.8173L138.357 35.5582L138.446 35.3001L138.57 35.072L138.706 34.8378L138.865 34.6066L139.049 34.4063L139.266 34.216L139.483 34.0397L139.707 33.9051L139.949 33.7806L140.2 33.6999L140.461 33.6291L140.73 33.5933L141.009 33.5813ZM89.3966 57.5371L89.8644 57.5132L90.3555 57.4335L90.8365 57.312L91.0714 57.2302L91.2872 57.1386L91.4929 57.013L91.6845 56.8785L91.8549 56.7141L92.0021 56.5377L92.108 56.3215L92.1917 56.0883L92.2451 55.8372V55.5383L92.2088 55.2553L92.108 55.0112L91.9729 54.776L91.7843 54.5648L91.5463 54.3715L91.261 54.1951L90.9484 54.0496L90.6045 53.8922L89.8221 53.6271L88.961 53.3671L88.0262 53.112L87.0673 52.8141L86.1023 52.4623L85.6395 52.258L85.1736 52.0408L84.735 51.8007L84.2994 51.5277L83.9001 51.2128L83.5169 50.8899L83.16 50.5113L82.8333 50.1028L82.5449 49.6534L82.2978 49.1711L82.0901 48.631L81.9419 48.0451L81.831 47.4104L81.7725 46.7159V46.2994L81.7896 45.9058L81.831 45.5271L81.9006 45.1455L81.9812 44.7808L82.078 44.4281L82.199 44.0953L82.3382 43.7654L82.4874 43.4436L82.6629 43.1417L82.8454 42.8418L83.0511 42.5727L83.2689 42.3017L83.5018 42.0426L83.7509 41.8184L84.008 41.5823L84.2863 41.365L84.5595 41.1658L85.1615 40.7971L85.7917 40.4862L86.4512 40.2181L87.148 40.0129L87.8619 39.8525L88.5909 39.7428L89.3199 39.689H89.9027L90.4805 39.701L91.025 39.7568L91.5675 39.8236L92.0939 39.9322L92.6051 40.0687L93.0972 40.2321L93.5792 40.4194L94.044 40.6516L94.4957 40.9087L94.9515 41.1946L95.374 41.5175L95.7995 41.8832L96.2079 42.2738L96.6072 42.6933L96.9873 43.1716L93.7032 45.8251L93.198 45.3209L92.7301 44.8874L92.2623 44.5237L92.0253 44.3613L91.7944 44.2288L91.5463 44.1042L91.2872 43.9936L91.017 43.9149L90.7306 43.8462L90.4261 43.7963L90.0963 43.7654L89.7535 43.7515L89.3703 43.7654L89.0144 43.7963L88.6433 43.885L88.2723 44.0355L87.9324 44.2368L87.7681 44.3454L87.6189 44.4799L87.4908 44.6184L87.3809 44.7808L87.2841 44.9442L87.2155 45.1186L87.1903 45.3209L87.1762 45.5271L87.2155 45.7972L87.3123 46.0523L87.4646 46.2994L87.6572 46.4997L87.8881 46.693L88.1765 46.8663L88.4931 47.0148L88.8319 47.1673L89.6144 47.4224L90.4967 47.6665L91.4263 47.9126L92.3994 48.1986L93.3573 48.5314L93.8413 48.7197L94.3062 48.9399L94.7539 49.1831L95.1955 49.4431L95.6069 49.7341L95.9901 50.0798L96.3491 50.4455L96.6758 50.8501L96.9631 51.2975L97.2122 51.7837L97.4129 52.3268L97.5833 52.9237L97.674 53.5743L97.7285 54.2669L97.7446 54.6993L97.7285 55.1068L97.6932 55.5064L97.6367 55.903L97.554 56.2796L97.4734 56.6503L97.3604 56.9971L97.2243 57.3359L97.0882 57.6776L96.9238 58.0025L96.7453 58.2994L96.5527 58.5983L96.3491 58.8793L96.1282 59.1524L95.8963 59.4084L95.6503 59.6576L95.3871 59.8877L95.1128 60.1149L94.8245 60.3132L94.5381 60.5065L94.2235 60.6849L93.9089 60.8433L93.5892 61.0107L93.2464 61.1462L92.5617 61.3764L91.8367 61.5458L91.0996 61.6753L90.3283 61.7252L89.6144 61.7381L88.9277 61.7142L88.244 61.6753L87.5755 61.6086L86.915 61.498L86.2727 61.3495L85.6395 61.1691L85.0395 60.942L84.4365 60.6849L83.8739 60.385L83.3122 60.0362L82.7758 59.6287L82.2706 59.1783L81.7896 58.691L81.3268 58.135L80.8831 57.5292L84.4063 54.792L84.9306 55.4805L85.4489 56.0624L85.708 56.3215L85.9702 56.5527L86.2294 56.7569L86.5188 56.9313L86.8102 57.0927L87.1227 57.2302L87.4343 57.3359L87.7802 57.4176L88.1492 57.4863L88.5344 57.5292L88.961 57.5371H89.3966ZM133.166 56.7295H131.741V61.2374H133.099L133.753 61.2244L134.222 61.1826L134.482 61.1188L134.712 61.0232L134.939 60.9006L135.097 60.7531L135.248 60.5768L135.349 60.3725L135.417 60.1393L135.442 59.9141L135.423 59.6969L135.374 59.5176L135.306 59.3422L135.194 59.1947L135.068 59.0722L134.907 58.9665L134.712 58.8788L134.497 58.8131L134.649 58.7433L134.796 58.6646L134.907 58.57L135.004 58.4743L135.068 58.3557L135.126 58.2222L135.153 58.0588L135.167 57.8914L135.138 57.6223L135.042 57.3812L134.894 57.158L134.796 57.0683L134.703 56.9966L134.441 56.867L134.126 56.7794L133.717 56.7455L133.166 56.7295ZM132.919 60.3595H133.342L133.753 60.3297L133.904 60.3037L134.033 60.2479L134.111 60.1822L134.165 60.0895L134.193 59.9809L134.208 59.8454L134.193 59.7089L134.165 59.5863L134.095 59.4907L134.017 59.4249L133.891 59.385L133.74 59.3422L133.289 59.3322H132.919V60.3595ZM132.919 58.4902H133.26L133.603 58.4633L133.726 58.4364L133.823 58.3816L133.891 58.3238L133.947 58.2461L133.976 58.1514L133.987 58.0428L133.976 57.9213L133.947 57.8236L133.904 57.7429L133.836 57.6911L133.74 57.6512L133.603 57.6223L133.26 57.6094H132.919V58.4902ZM137.335 56.7295H138.5L140.206 61.2384H138.953L138.651 60.3456H137.182L136.88 61.2384H135.631L137.335 56.7295ZM138.347 59.4458L137.923 57.9213L137.485 59.4458H138.347ZM140.856 56.7296H142.105L143.789 59.5167V56.7296H144.953V61.2375H143.778L142.023 58.4116V61.2375H140.856V56.7296ZM147.382 56.7296H146.176V61.2375H147.382V59.1679L148.942 61.2375H150.466L148.45 58.848L150.359 56.7296H148.942L147.382 58.57V56.7296ZM62.516 56.552H53.9865V52.9489H61.5419V48.2467H53.9865V44.6067H62.4737V39.9175H51.2901L51.0169 39.9315L50.7537 39.9733L50.4946 40.0401L50.2455 40.1228L50.0015 40.2443L49.7837 40.3749L49.576 40.5273L49.3854 40.7057L49.2049 40.895L49.0557 41.0973L48.9226 41.3165L48.8066 41.5397L48.7118 41.7878L48.6422 42.0419L48.6029 42.3139L48.5908 42.589V58.5698L48.6029 58.8478L48.6422 59.0959L48.7118 59.3559L48.8066 59.5991L48.9226 59.8462L49.0557 60.0604L49.2049 60.2647L49.3854 60.455L49.576 60.6314L49.7837 60.7798L50.0015 60.9124L50.2455 61.023L50.4946 61.1186L50.7537 61.1684L51.0169 61.2113L51.2901 61.2242L51.633 61.2113H62.516V56.552ZM97.195 44.7146V39.9318H111.463V44.7146H107.229L107.245 61.2116H101.158V44.7146H97.195ZM134.894 54.7661H135.671H138.008H141.514H144.969H147.147L147.463 54.7521L147.712 54.7073L147.847 54.6694L148.177 54.5638L148.533 54.3974L148.698 54.3027L148.734 54.2888L148.89 54.1812L149.054 54.0506L149.255 53.8424L149.436 53.6401L149.559 53.4677L149.659 53.3162L149.726 53.1897L149.862 52.8539L149.96 52.5709L150.014 52.3836L150.043 52.1763L150.056 48.8343V45.552H136.181V44.9303V44.5397H143.203H150.056V43.1726V42.9802L150.027 42.5328L149.96 42.1143L149.919 41.935L149.726 41.5404L149.627 41.381L149.535 41.2465L149.42 41.1109L149.135 40.8409L149.067 40.7871L148.818 40.6217L148.559 40.4613L148.467 40.4035L148.325 40.3387L147.901 40.1633L147.572 40.0547L147.297 39.985L147.027 39.9441H144.6H140.568H136.645H134.591L134.385 39.974L133.92 40.0547L133.494 40.1892L133.318 40.2689L133.1 40.3626L132.893 40.4862L132.562 40.7612L132.495 40.814L132.328 41.0173L132.124 41.3003L131.999 41.5175L131.878 41.8025L131.847 41.8682L131.78 42.0605L131.741 42.3425L131.7 42.8417V42.9404L131.715 49.4431H145.626V50.3867H138.663H131.715L131.725 51.1889L131.741 52.0817L131.766 52.5311L131.833 52.7453V52.7881L131.933 53.0153L132.042 53.2585L132.181 53.5046L132.328 53.7088L132.451 53.8424L132.754 54.0984L133.054 54.3027L133.192 54.3904L133.465 54.509L133.781 54.6146L134.164 54.6993L134.551 54.7521L134.894 54.7661ZM126.281 56.552H117.74V52.9618H125.297V48.2626H117.74V44.6177H126.27V39.9315H115.062L114.785 39.9434L114.509 39.9843L114.25 40.0401L114.003 40.1347L113.77 40.2443L113.548 40.3749L113.329 40.5413L113.152 40.7057L112.974 40.895L112.823 41.0973L112.69 41.3255L112.563 41.5586L112.479 41.8018L112.412 42.0608L112.376 42.3139L112.356 42.589V58.5698L112.376 58.8478L112.412 59.1148L112.479 59.3689L112.563 59.612L112.69 59.8462L112.823 60.0604L112.974 60.2776L113.152 60.468L113.329 60.6314L113.548 60.7908L113.77 60.9124L114.003 61.0369L114.25 61.1186L114.509 61.1824L114.785 61.2242L115.062 61.2382L115.401 61.2113H126.281V56.552ZM75.5106 61.2108H81.6242L77.1491 51.6867L77.497 51.5125L77.8651 51.2983L78.2119 51.0531L78.5406 50.7811L78.8411 50.4872L79.1174 50.1693L79.3776 49.8455L79.6125 49.4927L79.8303 49.1131L80.0037 48.7374L80.159 48.3159L80.2942 47.8974L80.3869 47.464L80.4696 47.0026L80.513 46.5433L80.5281 46.0511V45.6784L80.4999 45.2818L80.4454 44.9161L80.3869 44.5474L80.3083 44.2146L80.2135 43.8848L80.1066 43.5749L79.9785 43.274L79.8404 42.992L79.6831 42.721L79.5147 42.4519L79.3352 42.2058L79.1426 41.9756L78.94 41.7624L78.7161 41.5581L78.4983 41.3658L78.0052 41.0181L77.4859 40.7281L76.9344 40.473L76.3495 40.2847L75.7304 40.1223L75.0982 40.0127L74.4538 39.9589L73.7863 39.932H64.1032V61.2237H69.52L69.5352 52.9384H71.9471L75.5106 61.2108ZM69.52 43.9027H72.0026L72.5219 43.9237L73.0452 43.9924L73.3053 44.0522L73.5524 44.118L73.7863 44.2146L74.0152 44.3183L74.2229 44.4578L74.4165 44.6182L74.5738 44.7926L74.714 45.0108L74.839 45.2569L74.9237 45.5269L74.9762 45.8109L74.9923 46.1497L74.9762 46.5323L74.9126 46.8512L74.8108 47.1392L74.6898 47.3992L74.5214 47.6115L74.3318 47.7918L74.1241 47.9473L73.8811 48.0728L73.632 48.1715L73.3719 48.2472L73.0996 48.301L72.8082 48.3558L72.2224 48.3967L71.6466 48.4136L70.5919 48.3967L69.52 48.4136V43.9027Z" fill="#111111"/>
</svg>
