<svg width="200" height="100" viewBox="0 0 200 100" fill="none" xmlns="http://www.w3.org/2000/svg">
<path fill-rule="evenodd" clip-rule="evenodd" d="M122.641 23.1047H68.5571V76.989H122.641V23.1047ZM74.6401 42.4701C74.6361 43.3277 73.9409 44.0209 73.0846 44.0209C72.2284 44.0213 71.5328 43.3284 71.5285 42.4708C71.5285 41.617 72.228 40.9208 73.0846 40.9208C73.9404 40.9208 74.6397 41.6167 74.6401 42.4701ZM74.4828 53.2172H71.7206V45.4491H74.4828V53.2172ZM79.0979 46.424H79.0801V45.4662H76.3179V53.2336H79.0801V49.5241C79.0801 48.671 79.0801 47.3469 80.3032 47.3469C81.527 47.3469 81.527 48.6532 81.527 49.5241V53.2336H84.2892V49.5241C84.2892 48.6012 84.3419 47.3996 85.6177 47.3996C86.7565 47.3996 86.755 48.6509 86.7541 49.4565L86.754 49.5241V53.2336H89.5155V48.2876C89.5155 46.4938 88.8338 45.2053 86.8593 45.2053C85.792 45.2053 84.7439 45.7099 84.2195 46.6856C83.6602 45.6579 82.6812 45.2053 81.5626 45.2053C80.5487 45.2053 79.7446 45.5531 79.0979 46.424ZM97.1033 53.2165H99.8477V45.4491H97.0855V46.1974C96.5092 45.5182 95.565 45.1875 94.6734 45.1875C92.3659 45.1875 90.7749 47.0861 90.7749 49.3153C90.7749 51.5445 92.4008 53.4602 94.7083 53.4602C95.6169 53.4602 96.5782 53.1117 97.0678 52.3456H97.1033V53.2165ZM95.407 51.0913C94.2707 51.0913 93.6239 50.343 93.6239 49.3502C93.6239 48.3924 94.2878 47.5906 95.407 47.5906C96.5426 47.5906 97.1894 48.3924 97.1894 49.3502C97.1894 50.343 96.5256 51.0913 95.407 51.0913ZM110.265 52.4674C110.265 55.7764 108.622 57.0998 105.755 57.0998C103.955 57.0998 101.56 56.1769 101.315 54.1394H104.409C104.479 54.4173 104.689 54.6097 104.933 54.7309C105.178 54.8535 105.458 54.9055 105.72 54.9055C107.206 54.9055 107.503 53.9305 107.503 52.6763V52.3107C106.787 53.0247 106.052 53.3725 105.021 53.3725C102.749 53.3725 101.175 51.6486 101.175 49.4022C101.175 47.1381 102.784 45.1875 105.178 45.1875C106.087 45.1875 106.926 45.484 107.468 46.2672H107.503V45.4491H110.265V52.4674ZM104.024 49.2804C104.024 50.2731 104.671 51.0221 105.808 51.0221C106.926 51.0221 107.591 50.2731 107.591 49.2804C107.591 48.3226 106.943 47.5215 105.808 47.5215C104.689 47.5215 104.024 48.3397 104.024 49.2804ZM114.181 49.8028H120.001V49.5241C120.001 46.8773 118.446 45.2053 115.736 45.2053C113.202 45.2053 111.419 46.7547 111.419 49.3502C111.419 52.032 113.341 53.4773 115.929 53.4773C116.838 53.4773 117.712 53.2685 118.428 52.833C119.145 52.3805 119.687 51.7184 119.897 50.8126H117.24C116.925 51.335 116.506 51.5274 115.911 51.5274C114.775 51.5274 114.181 50.9174 114.181 49.8028ZM115.859 46.9991C116.61 46.9991 117.292 47.4695 117.432 48.2178H117.431H114.215C114.39 47.4167 115.055 46.9991 115.859 46.9991ZM52.5973 47.312V40.7462H51.9157V53.2343H52.5973V49.785C52.5973 48.3575 52.8777 46.7205 54.6423 46.7205C56.1813 46.7205 56.3379 47.7474 56.3379 49.0017V53.2336H57.0202V49.0017C57.0202 47.1901 56.5129 46.0755 54.7127 46.0755C53.8034 46.0755 53.0342 46.5459 52.6329 47.312H52.5973ZM48.8041 53.2165H49.4858V46.8594H50.7096V46.2152H49.4858V43.7244H48.8041V46.2152H48.0356V46.8594H48.8041V53.2165ZM59.3626 49.7857C59.31 51.5616 60.5509 52.7461 62.1768 52.7461C63.2775 52.7461 64.152 52.1018 64.6586 51.1611L65.2357 51.4918C64.5889 52.7112 63.4703 53.3903 62.0892 53.3903C60.0087 53.3903 58.681 51.7013 58.681 49.7329C58.681 47.7824 60.0265 46.0933 62.0892 46.0933C64.2217 46.0933 65.4804 47.7824 65.4626 49.8028H59.3633V49.7857H59.3626ZM62.0892 46.7034C63.5401 46.7034 64.5889 47.8522 64.7632 49.1407H59.3448C59.4672 47.8173 60.6555 46.7034 62.0892 46.7034ZM132.482 52.8851C132.482 53.9655 132.447 54.9233 131.783 55.8462C131.136 56.7342 130.087 57.1867 128.987 57.1867C127.151 57.1867 125.63 56.107 125.525 54.1914H126.207C126.277 55.6367 127.518 56.5603 128.934 56.5603C129.808 56.5603 130.664 56.2638 131.189 55.5148C131.731 54.7138 131.818 53.8087 131.818 52.868V51.9971H131.783C131.154 52.833 130.105 53.3554 129.039 53.3554C126.994 53.3554 125.63 51.6486 125.63 49.698C125.63 47.6783 127.081 46.0584 129.126 46.0584C130.262 46.0584 131.118 46.5459 131.766 47.4167H131.801V46.1981H132.482V52.8851ZM126.312 49.6809C126.312 51.283 127.378 52.7454 129.073 52.7454C130.874 52.7454 131.836 51.3008 131.836 49.6111C131.836 47.9919 130.734 46.7205 129.022 46.7205C127.413 46.7027 126.312 48.1658 126.312 49.6809ZM134.93 47.1381H134.895V46.2323H134.213V53.2343H134.895V49.6638C134.895 49.6131 134.894 49.5603 134.894 49.5056C134.89 48.4518 134.883 46.7205 136.345 46.7205C136.538 46.7205 136.66 46.7725 136.835 46.8594L137.202 46.2501C136.957 46.1282 136.73 46.0762 136.451 46.0762C135.699 46.0762 135.209 46.4938 134.93 47.1381ZM144.492 49.7329C144.492 51.8054 142.866 53.3903 140.803 53.3903C138.775 53.3903 137.149 51.7362 137.149 49.7507C137.145 48.779 137.528 47.8457 138.215 47.1587C138.901 46.4718 139.833 46.0882 140.803 46.0933C142.866 46.0755 144.491 47.6434 144.491 49.7329H144.492ZM140.751 52.7283C139.09 52.7283 137.832 51.3179 137.832 49.7329H137.831C137.831 48.1137 139.073 46.7027 140.751 46.7027C142.481 46.7027 143.81 48.009 143.81 49.7329C143.81 51.4227 142.464 52.7283 140.751 52.7283ZM150.469 46.233V50.4299L150.469 50.5105C150.47 51.1975 150.471 51.8803 150.05 52.4496C149.561 53.0946 148.739 53.3903 147.953 53.3903C147.166 53.3903 146.345 53.0946 145.855 52.4496C145.434 51.8804 145.435 51.1975 145.435 50.5105L145.435 50.4299V46.2323H146.117V50.1862C146.117 51.5267 146.274 52.7461 147.953 52.7461C149.631 52.7461 149.788 51.5274 149.788 50.1862V46.2323H150.469V46.233ZM152.813 47.4866H152.777H152.76V46.2152H152.078V57.3086H152.759V52.0149H152.795C153.371 52.9029 154.42 53.3732 155.504 53.3732C157.619 53.3732 158.947 51.8232 158.947 49.7857C158.947 47.7474 157.637 46.0755 155.486 46.0755C154.455 46.0755 153.336 46.5986 152.813 47.4866ZM152.742 49.8726C152.742 51.5096 153.844 52.7283 155.538 52.7283C157.182 52.7283 158.284 51.3528 158.284 49.785C158.284 48.1829 157.235 46.7027 155.521 46.7027C153.703 46.7027 152.742 48.2007 152.742 49.8726Z" fill="#111111"/>
</svg>
