<svg width="200" height="100" viewBox="0 0 200 100" fill="none" xmlns="http://www.w3.org/2000/svg">
<path fill-rule="evenodd" clip-rule="evenodd" d="M169.268 43.9863C169.285 44.054 169.294 44.124 169.301 44.194C169.309 44.264 169.314 44.3355 169.318 44.4055C169.318 44.4778 169.316 44.5507 169.31 44.623L169.31 44.6243L169.31 44.6245V44.6247C169.304 44.6994 169.298 44.7747 169.282 44.8479C169.275 44.8805 169.268 44.9134 169.262 44.9462L169.262 44.9465C169.236 45.0738 169.21 45.2014 169.161 45.3215C169.01 45.6923 168.831 46.052 168.65 46.4095C168.594 46.5171 168.523 46.616 168.453 46.714L168.453 46.7142L168.451 46.717C168.373 46.8265 168.292 46.9337 168.203 47.0342L168.129 47.1189L168.128 47.1192C167.959 47.3124 167.789 47.5054 167.602 47.6814C167.15 48.1058 166.689 48.5229 166.204 48.9116C165.639 49.3651 165.052 49.7925 164.456 50.2058C163.513 50.86 162.559 51.4969 161.605 52.1337L161.605 52.1338L161.604 52.134C161.147 52.4394 160.689 52.7448 160.233 53.052L162.551 54.4111C162.915 54.6243 163.277 54.8428 163.639 55.0611L163.64 55.0619L163.64 55.062C163.827 55.1749 164.014 55.2879 164.202 55.4C164.282 55.4484 164.362 55.499 164.439 55.5534C164.518 55.6085 164.596 55.6658 164.669 55.7299C164.752 55.8029 164.831 55.884 164.908 55.9645C164.948 56.0076 164.985 56.0546 165.019 56.1015C165.054 56.1484 165.086 56.1983 165.115 56.2489C165.145 56.2996 165.171 56.3524 165.192 56.4068C165.213 56.4612 165.229 56.517 165.241 56.5729C165.252 56.6302 165.259 56.689 165.259 56.7479C165.259 56.8082 165.253 56.87 165.24 56.9288C165.225 56.9936 165.205 57.0576 165.178 57.1172C165.147 57.185 165.111 57.2505 165.066 57.3093C165.016 57.3793 164.958 57.4449 164.895 57.5037C164.82 57.5737 164.738 57.6363 164.655 57.6951C164.56 57.7621 164.461 57.8254 164.361 57.8835L164.356 57.8865L164.355 57.8866L164.355 57.8866C164.246 57.9504 164.136 58.0146 164.02 58.0637C163.666 58.2151 163.308 58.3574 162.95 58.4996C162.774 58.5695 162.599 58.6393 162.423 58.7101C161.859 58.9391 161.266 59.0906 160.675 59.2416L160.674 59.2418L160.674 59.2419C160.558 59.2715 160.442 59.301 160.326 59.3312C159.329 59.5911 158.325 59.8226 157.318 60.0416C156.463 60.227 155.607 60.4072 154.743 60.542C154.004 60.6574 153.258 60.7326 152.512 60.7907C152.297 60.8079 152.079 60.7959 151.864 60.7669C151.426 60.7081 150.992 60.6217 150.561 60.5271C150.452 60.5035 150.348 60.4602 150.245 60.4173L150.245 60.4173L150.214 60.4042C150.099 60.3573 149.988 60.3067 149.88 60.2486C149.773 60.1905 149.668 60.128 149.571 60.0565C149.473 59.9857 149.38 59.9083 149.296 59.8234C149.211 59.7385 149.139 59.6424 149.067 59.5456C149.031 59.4972 149.001 59.4429 148.973 59.3892C148.944 59.3341 148.918 59.2775 148.895 59.2202C148.872 59.1606 148.85 59.0996 148.833 59.0385C148.815 58.9737 148.801 58.9082 148.791 58.8419C148.779 58.7741 148.771 58.7041 148.768 58.6341C148.765 58.5886 148.765 58.5432 148.765 58.4975C148.766 58.4684 148.766 58.4393 148.765 58.41C148.765 58.3976 148.764 58.3852 148.763 58.3728C148.762 58.3569 148.761 58.341 148.761 58.3251L148.763 58.2953C148.767 58.2217 148.771 58.1479 148.783 58.0764C148.807 57.9408 148.835 57.8061 148.878 57.675C148.937 57.4881 149.005 57.3034 149.089 57.1262C149.199 56.8931 149.322 56.663 149.462 56.4455C149.64 56.1663 149.832 55.8945 150.042 55.6375C150.304 55.3166 150.582 55.0061 150.878 54.7134C151.242 54.3537 151.615 54.0015 152.016 53.6835C152.716 53.1286 153.436 52.5975 154.156 52.0662L154.156 52.0658C154.515 51.8008 154.874 51.5358 155.231 51.2678L152.143 49.5453C150.77 48.779 149.38 48.041 147.99 47.3053C147.051 46.8083 146.106 46.3212 145.162 45.8341L145.161 45.8341L145.161 45.834L145.157 45.8318C144.712 45.6022 144.267 45.3726 143.822 45.142L143.767 45.1138C143.73 45.0944 143.692 45.0752 143.655 45.0556L143.651 45.0531C143.646 45.0506 143.642 45.0478 143.637 45.0467C143.634 45.0452 143.645 45.0519 143.649 45.0534C143.667 45.0631 143.703 45.0817 143.729 45.0956C143.756 45.1096 143.774 45.1189 143.756 45.11C143.725 45.0939 143.694 45.0782 143.662 45.0624L143.662 45.062C143.591 45.0266 143.521 44.9909 143.452 44.9514C143.227 44.8203 142.999 44.687 142.779 44.544C142.653 44.4621 142.534 44.3713 142.417 44.2759C142.304 44.1836 142.197 44.0838 142.093 43.9818C142.045 43.9341 142.002 43.882 141.96 43.8284C141.922 43.7792 141.885 43.7279 141.854 43.6735C141.826 43.6236 141.801 43.5715 141.782 43.5171C141.765 43.4672 141.749 43.4151 141.745 43.3622C141.738 43.2572 141.74 43.1507 141.751 43.0457C141.764 42.9318 141.789 42.8186 141.817 42.7076C141.848 42.59 141.886 42.4738 141.928 42.3591C141.972 42.2392 142.017 42.1186 142.074 42.0047C142.294 41.5661 142.52 41.1297 142.761 40.7015C142.899 40.4565 143.049 40.2174 143.21 39.9858C143.348 39.7872 143.485 39.5878 143.623 39.3884L143.623 39.3882C144.124 38.6592 144.627 37.9294 145.172 37.2313C146.736 35.2273 148.354 33.2666 149.98 31.3118C150.389 30.8188 150.826 30.3467 151.278 29.8902C152.124 29.0338 152.989 28.1953 153.87 27.3732C154.05 27.2051 154.249 27.0577 154.447 26.9104L154.447 26.9104L154.447 26.9104L154.447 26.9104C154.485 26.8827 154.522 26.8551 154.559 26.8273C154.693 26.7275 154.833 26.6352 154.975 26.5466C155.109 26.4632 155.245 26.3828 155.387 26.3135C155.514 26.2517 155.645 26.1973 155.78 26.1526C155.905 26.1109 156.034 26.0789 156.163 26.0536C156.284 26.0298 156.407 26.0149 156.53 26.0059C156.645 25.9978 156.762 26 156.877 26.0022C156.945 26.0037 157.013 26.0082 157.081 26.0179C157.171 26.0305 157.261 26.0439 157.349 26.0685C157.455 26.0983 157.558 26.1378 157.66 26.1795C157.719 26.2033 157.774 26.2338 157.829 26.2651C157.887 26.2986 157.945 26.3358 158.001 26.3761C158.061 26.42 158.119 26.4654 158.174 26.5146C158.235 26.5689 158.293 26.6255 158.348 26.6851C158.409 26.7499 158.466 26.8176 158.52 26.8884C158.579 26.9666 158.637 27.047 158.688 27.1297C158.746 27.2213 158.801 27.3151 158.85 27.4112C158.905 27.5184 158.956 27.6271 159.003 27.7373C159.055 27.8595 159.101 27.9838 159.144 28.1089L159.148 28.12L159.148 28.1203C159.194 28.2551 159.241 28.3906 159.273 28.5304M169.268 43.9863C169.232 43.8478 169.194 43.7092 169.141 43.5767L169.268 43.9863ZM169.141 43.5767C169.083 43.4359 169.012 43.2997 168.936 43.1679L169.141 43.5767ZM168.936 43.1679C168.851 43.0226 168.757 42.8834 168.657 42.7471L168.936 43.1679ZM168.657 42.7471C168.599 42.6674 168.532 42.593 168.463 42.5222L168.657 42.7471ZM168.463 42.5222C168.386 42.4433 168.307 42.3651 168.219 42.2966L168.463 42.5222ZM168.219 42.2966L168.167 42.2555L168.219 42.2966ZM168.167 42.2555C167.988 42.114 167.809 41.9723 167.613 41.8535L168.167 42.2555ZM167.613 41.8535L167.46 41.7599L167.613 41.8535ZM167.46 41.7599C167.043 41.5045 166.624 41.2479 166.176 41.0522L167.46 41.7599ZM166.176 41.0522C165.973 40.9635 165.772 40.8693 165.571 40.7751L166.176 41.0522ZM165.571 40.7751L165.571 40.775L165.571 40.7751ZM165.571 40.775C165.171 40.5877 164.772 40.4006 164.355 40.2569L165.571 40.775ZM164.355 40.2569L160.135 38.8018L164.355 40.2569ZM160.135 38.8018C160.135 38.5363 160.138 38.2709 160.14 38.0054L160.135 38.8018ZM160.14 38.0054V38.0049V38.0054ZM160.14 38.0049C160.146 37.4738 160.151 36.9428 160.135 36.4121L160.14 38.0049ZM160.135 36.4121C160.1 35.2303 160.052 34.0478 159.96 32.8689L160.135 36.4121ZM159.96 32.8689C159.895 32.0483 159.796 31.2299 159.667 30.4167L159.96 32.8689ZM159.667 30.4167C159.583 29.8872 159.463 29.364 159.344 28.8413L159.667 30.4167ZM154.37 32.373C153.57 33.1698 152.783 33.9778 151.997 34.7872C151.58 35.2173 151.167 35.6524 150.755 36.0876L150.755 36.0882C150.578 36.2745 150.402 36.4608 150.225 36.6467L150.434 36.6519L151.078 36.7011L153.74 37.1359L156.592 37.7875L156.354 35.2459C156.342 35.1218 156.331 34.9977 156.32 34.8735V34.8734V34.8734C156.288 34.52 156.256 34.1666 156.216 33.8139C156.175 33.4461 156.123 33.0789 156.066 32.7125C156.042 32.5621 156.014 32.4132 155.977 32.2665C155.952 32.1637 155.917 32.0632 155.879 31.9649C155.867 31.9315 155.847 31.9006 155.827 31.8705L155.822 31.8621C155.804 31.8338 155.783 31.807 155.76 31.7817C155.741 31.7593 155.719 31.7385 155.696 31.7199C155.676 31.7035 155.654 31.6886 155.632 31.6759C155.61 31.664 155.587 31.6536 155.565 31.6469C155.543 31.6395 155.521 31.6335 155.498 31.6328C155.453 31.6305 155.409 31.6298 155.365 31.6372C155.323 31.6439 155.284 31.6596 155.245 31.6752C155.208 31.6901 155.173 31.708 155.139 31.7288C155.1 31.7529 155.064 31.7803 155.028 31.8077L155.003 31.8271C154.945 31.8711 154.887 31.9157 154.833 31.9626C154.795 31.9961 154.756 32.0293 154.716 32.0626L154.716 32.0626C154.598 32.1631 154.479 32.2639 154.37 32.373ZM150.208 38.3215L150.219 38.3058L150.234 38.2976L150.256 38.2954L150.29 38.3006L150.39 38.3289L150.648 38.4272L150.999 38.5821C151.905 38.9671 152.811 39.3521 153.717 39.7356C153.999 39.8548 154.28 39.9735 154.561 40.0921L154.566 40.0944L154.567 40.0948C154.885 40.2288 155.203 40.3628 155.52 40.4974L156.707 41.0008L156.813 41.0478C156.834 41.3568 156.857 41.6658 156.879 41.9747L156.88 41.9792L156.88 41.9793C156.925 42.6002 156.971 43.221 157.004 43.8425C157.04 44.5061 157.056 45.171 157.072 45.8354V45.8355L157.077 46.0297C157.079 46.1153 157.073 46.2003 157.066 46.2853L157.066 46.2856L157.065 46.3052C157.062 46.3566 157.057 46.4087 157.049 46.4601C157.041 46.5115 157.031 46.5629 157.016 46.612C157.001 46.6604 156.984 46.7096 156.96 46.7542C156.937 46.7982 156.904 46.8384 156.872 46.8771C156.856 46.8965 156.834 46.9136 156.814 46.9292C156.793 46.9449 156.77 46.9605 156.746 46.9739C156.721 46.9873 156.693 46.9985 156.666 47.0082C156.636 47.0186 156.606 47.0275 156.574 47.0335C156.536 47.0402 156.497 47.0439 156.459 47.0454C156.418 47.0462 156.378 47.0454 156.337 47.0402C156.294 47.035 156.252 47.0261 156.211 47.0156C156.165 47.0045 156.121 46.9925 156.079 46.9754C155.987 46.9367 155.895 46.8957 155.808 46.8466C155.709 46.7907 155.614 46.7274 155.521 46.6604C155.419 46.5859 155.322 46.5063 155.227 46.4236C155.124 46.3328 155.022 46.2404 154.929 46.1414C154.723 45.9232 154.52 45.7013 154.329 45.4697C154.266 45.3927 154.202 45.316 154.138 45.2392L154.138 45.2391L154.138 45.239L154.138 45.2389C153.855 44.8992 153.572 44.5589 153.325 44.1933C153.188 43.9905 153.05 43.7885 152.913 43.5865L152.912 43.5861C152.63 43.1726 152.348 42.7592 152.075 42.339L152.003 42.2283C151.784 41.8922 151.565 41.555 151.383 41.1967L150.467 39.3953L150.27 38.8212L150.225 38.6506L150.198 38.4861L150.195 38.3669L150.208 38.3215ZM160.394 54.3299C160.372 54.316 160.349 54.3021 160.327 54.2882L159.882 54.0081C159.795 53.9529 159.707 53.8977 159.619 53.8425C159.519 53.7793 159.419 53.7161 159.318 53.653L156.657 55.4447C156.241 55.7246 155.842 56.0283 155.443 56.332C155.239 56.4873 155.035 56.6426 154.829 56.7948L154.533 57.0547L154.465 57.1269L154.611 57.118L159.312 56.7516C160.051 56.6939 160.792 56.6406 161.532 56.5874L161.534 56.5873C161.996 56.5541 162.459 56.5208 162.921 56.4865C162.943 56.485 162.966 56.482 162.988 56.4775C163.003 56.4746 163.018 56.4708 163.033 56.4641C163.043 56.4597 163.053 56.4522 163.062 56.444C163.068 56.4381 163.074 56.4306 163.077 56.4217C163.079 56.4153 163.08 56.4089 163.081 56.4024C163.082 56.3953 163.083 56.3881 163.083 56.3807C163.083 56.3748 163.083 56.3681 163.079 56.3629L163.07 56.3502C163.013 56.2755 162.958 56.2011 162.895 56.1328C162.812 56.0449 162.726 55.9615 162.634 55.884C162.427 55.7105 162.218 55.5407 161.999 55.3836C161.72 55.183 161.432 54.9948 161.144 54.8065L161.065 54.7551C160.881 54.6343 160.694 54.5174 160.507 54.4004L160.506 54.4C160.469 54.3766 160.431 54.3533 160.394 54.3299ZM163.947 45.1003C163.935 45.1435 163.918 45.1859 163.898 45.2254C163.873 45.2716 163.845 45.3163 163.811 45.3557C163.731 45.4503 163.646 45.5426 163.555 45.6268L163.487 45.6882C163.313 45.8463 163.139 46.0047 162.947 46.1399C162.701 46.3128 162.457 46.487 162.212 46.6612L162.209 46.6634C161.71 47.0184 161.212 47.3734 160.705 47.7171C160.322 47.9775 159.93 48.2254 159.538 48.4733L159.537 48.4737C159.397 48.5624 159.257 48.651 159.117 48.7403L156.029 50.71L155.592 50.4613C155.3 50.2952 155.009 50.1292 154.717 49.9638L149.125 46.79C148.714 46.5459 148.302 46.3032 147.889 46.0605C147.036 45.5582 146.183 45.0559 145.337 44.5418C145.156 44.4316 144.983 44.3079 144.811 44.1843L144.811 44.1843C144.758 44.1467 144.706 44.1091 144.653 44.0719C144.606 44.039 144.562 44.0029 144.517 43.9669C144.493 43.9476 144.469 43.9283 144.445 43.9096C144.438 43.9038 144.43 43.8982 144.422 43.8925C144.407 43.8823 144.392 43.872 144.379 43.8604C144.332 43.8172 144.284 43.7725 144.24 43.7249C144.213 43.6951 144.19 43.6631 144.168 43.6296C144.146 43.5946 144.124 43.5581 144.109 43.5193C144.093 43.4799 144.079 43.4382 144.073 43.395C144.066 43.3503 144.066 43.3049 144.072 43.2602C144.079 43.2111 144.093 43.1634 144.11 43.1172C144.128 43.0673 144.15 43.0182 144.178 42.9728C144.234 42.8789 144.293 42.7858 144.36 42.6987C144.438 42.5989 144.522 42.5036 144.61 42.4135C145.038 41.9767 145.469 41.5436 145.901 41.1104C146.198 40.8117 146.496 40.5129 146.792 40.213L148.749 38.2299L148.842 38.5501L149.08 39.1131L149.096 39.1473C149.268 39.4442 149.437 39.7431 149.606 40.0421L149.607 40.0425C149.945 40.6402 150.283 41.238 150.648 41.8192C151.279 42.8216 151.956 43.7949 152.633 44.7667C152.951 45.2217 153.283 45.6678 153.632 46.1004C153.936 46.4765 154.25 46.8458 154.591 47.1899C154.89 47.4915 155.218 47.767 155.551 48.0329C155.699 48.1499 155.862 48.2468 156.025 48.3431L156.083 48.3776C156.168 48.4298 156.261 48.4715 156.353 48.5124C156.441 48.5504 156.53 48.5839 156.621 48.613C156.709 48.6413 156.799 48.6643 156.891 48.683C156.973 48.7001 157.058 48.7135 157.142 48.7209C157.219 48.7276 157.296 48.7291 157.373 48.7262C157.443 48.7247 157.515 48.718 157.585 48.7068C157.65 48.6971 157.716 48.6822 157.779 48.6643C157.839 48.648 157.897 48.6271 157.955 48.6025C158.008 48.5809 158.061 48.5549 158.112 48.5266C158.16 48.4998 158.208 48.4722 158.253 48.4387C158.334 48.3776 158.415 48.3143 158.488 48.2451C158.551 48.1855 158.609 48.12 158.661 48.0515C158.729 47.9643 158.79 47.872 158.846 47.7774C158.914 47.6628 158.979 47.5443 159.035 47.423C159.098 47.2874 159.156 47.1497 159.204 47.0082C159.301 46.7133 159.394 46.4162 159.469 46.1138C159.482 46.0603 159.495 46.0069 159.508 45.9533C159.596 45.5984 159.684 45.2421 159.723 44.8784L159.976 42.4574C160.168 42.5461 160.361 42.6322 160.555 42.7182C160.944 42.8914 161.334 43.0647 161.712 43.2602C162.127 43.4751 162.528 43.7151 162.93 43.9552L162.93 43.9553C163.063 44.0347 163.195 44.1141 163.329 44.1925C163.392 44.2298 163.45 44.273 163.507 44.3191C163.586 44.3847 163.663 44.4539 163.735 44.5276C163.773 44.5664 163.807 44.6103 163.837 44.655C163.867 44.6989 163.893 44.7458 163.914 44.7942C163.932 44.8419 163.945 44.8933 163.955 44.9439C163.96 44.9692 163.958 44.9953 163.956 45.0213C163.957 45.0489 163.955 45.0757 163.947 45.1003ZM40.2305 59.9798H42.3492L36.8502 44.9826H34.7547L29 59.9798H31.139L32.8287 55.3836H38.5835L40.2305 59.9798ZM33.47 53.7014L35.7807 47.4714L37.985 53.7014H33.47ZM42.9643 51.5671C42.9643 53.9188 44.9923 54.379 46.9557 54.8005C48.6455 55.1632 50.285 55.5735 50.2843 56.8692C50.2843 58.0942 49.2852 58.7414 47.5767 58.7414C46.199 58.7414 45.2743 58.3586 44.7628 57.4754L42.725 57.8284C43.5193 59.4406 45.17 60.2121 47.4935 60.2121C50.6495 60.2121 52.3018 58.477 52.3018 56.6302C52.3018 54.2539 50.0945 53.609 47.5557 53.1019C46.3295 52.8569 44.8918 52.4071 44.8918 51.3273C44.8918 50.5581 45.6485 49.6697 47.1605 49.6697C48.7033 49.6697 49.628 50.7137 49.7712 51.1285L51.5578 50.3883C50.7388 48.8356 49.0977 48.2004 47.3795 48.2004C44.723 48.2004 42.9643 49.5021 42.9643 51.5671ZM56.5332 48.5459H58.6198V50.1403H56.5332V56.628C56.5332 57.9736 56.5333 58.5507 57.3575 58.5507C57.7213 58.5507 58.232 58.4055 58.6198 58.2864V59.8651C58.564 59.8729 58.4958 59.8833 58.4175 59.8953C58.0188 59.9563 57.3587 60.0572 56.75 60.0572C54.5187 60.0572 54.5187 58.9804 54.5427 57.494V50.1403H52.7225V48.5459H54.5427V45.8219L56.5332 44.9998V48.5459ZM62.2857 50.6169V48.575H60.359V59.9798H62.2857V54.738L62.2856 54.598V54.5979C62.2844 53.6498 62.283 52.5602 62.7717 51.7741C63.3965 50.7636 64.3242 50.3786 66.2165 50.3659V48.3903L66.2003 48.3908C65.412 48.4149 63.3695 48.4773 62.2857 50.6169ZM88.4952 44.9849V46.8555L79.9467 58.1806H88.7097V59.9798H77.6135V58.0317L86.204 46.8339H77.6202V44.9849H88.4952ZM102.717 50.3108V48.6539H100.788V59.9798H102.716V53.5107C102.716 52.6663 102.716 51.8017 103.569 50.9595C104.178 50.3585 104.91 50.0941 105.762 50.0941C106.809 50.0941 107.881 50.5752 108.222 51.6572C108.344 52.043 108.344 52.3788 108.344 53.5346V59.9798H110.265V53.2218C110.265 52.2589 110.265 51.5612 110.07 50.888C109.511 49.0062 107.76 48.2801 106.298 48.2801C105.616 48.2801 103.789 48.4491 102.717 50.3108ZM132.43 57.9609C131.711 59.0824 130.405 60.2114 128.053 60.2114C123.993 60.2114 122.461 57.1053 122.461 54.315C122.461 51.0913 124.227 48.1699 127.883 48.1699C129.317 48.1699 131.326 48.5988 132.437 50.4374L130.631 51.1858C130.29 50.4389 129.555 49.5758 127.956 49.5758C124.788 49.5758 124.603 53.16 124.603 54.1713C124.603 57.9289 126.777 58.7414 128.076 58.7414C129.563 58.7414 130.323 58.0332 130.724 57.2528L132.43 57.9609ZM99.155 57.8135C98.498 58.9238 97.2298 60.198 94.7292 60.198C91.3393 60.198 89.3893 57.9103 89.3893 54.0752C89.3893 49.791 92.2355 48.1535 94.658 48.1535C96.764 48.1535 98.783 49.3092 99.4618 52.1718C99.6808 53.1347 99.6808 54.003 99.6808 54.4848H91.4308C91.3828 56.3897 92.1868 58.8002 94.8995 58.7533C96.0065 58.7347 96.7858 58.2357 97.283 57.4538L99.155 57.8135ZM91.4788 53.1101H97.5695C97.3993 50.1269 95.6675 49.6228 94.5125 49.6228C92.864 49.6235 91.6963 50.8247 91.4788 53.1101ZM116.641 60.198C119.142 60.198 120.409 58.9238 121.066 57.8135L119.193 57.4538C118.698 58.2357 117.916 58.7347 116.809 58.7533C114.099 58.8002 113.292 56.3897 113.34 54.4848H121.59C121.59 54.003 121.59 53.1347 121.372 52.1718C120.693 49.3092 118.675 48.1535 116.568 48.1535C114.147 48.1535 111.3 49.791 111.3 54.0752C111.3 57.9103 113.251 60.198 116.641 60.198ZM119.48 53.1101H113.388C113.607 50.8247 114.776 49.6235 116.423 49.6228C117.579 49.6228 119.311 50.1269 119.48 53.1101ZM142.963 59.9917L140.959 59.9991C140.959 59.9991 140.786 59.1956 140.73 58.3184C140.701 58.3477 140.672 58.3784 140.641 58.4105C140.04 59.0367 138.961 60.16 136.885 60.16C134.653 60.16 132.997 58.8456 132.997 56.9199C132.997 56.3159 133.168 55.715 133.508 55.2071C134.166 54.2428 135.383 53.4713 138.802 53.2069L140.62 53.0624V52.7728C140.62 51.5917 140.62 49.6161 138.058 49.6161C136.446 49.6161 135.897 50.392 135.711 51.0928L133.936 50.357C133.964 50.2959 133.996 50.2334 134.03 50.1701C134.712 48.9175 136.049 48.1461 137.983 48.1461C139.048 48.1461 140.427 48.4119 141.325 49.1104C142.604 50.0725 142.573 51.9678 142.573 51.9678L142.651 57.8165C142.651 57.818 142.719 59.5158 142.963 59.9917ZM140.329 56.8476C140.62 56.2214 140.644 55.9563 140.644 54.2912L140.499 54.3144L140.238 54.3554L140.236 54.3556C139.541 54.4648 138.667 54.6017 137.638 54.8221C135.503 55.2794 135.139 56.0776 135.139 56.8722C135.139 57.7882 135.868 58.5604 137.298 58.5604C138.633 58.5604 139.772 58.0302 140.329 56.8476ZM74.249 59.9991L76.253 59.9917C76.0077 59.5158 75.9395 57.818 75.9395 57.8165L75.8622 51.9678C75.8622 51.9678 75.893 50.0725 74.6143 49.1104C73.7165 48.4119 72.3365 48.1461 71.2722 48.1461C69.3395 48.1461 68.0015 48.9175 67.3197 50.1701C67.2852 50.2334 67.2545 50.2959 67.2253 50.357L68.9997 51.0928C69.1872 50.392 69.7347 49.6161 71.3465 49.6161C73.91 49.6161 73.91 51.5917 73.91 52.7728V53.0624L72.0905 53.2069C68.6727 53.4713 67.4562 54.2428 66.7985 55.2071C66.4572 55.715 66.287 56.3159 66.287 56.9199C66.287 58.8456 67.9422 60.16 70.1758 60.16C72.2515 60.16 73.3286 59.0379 73.9298 58.4115L73.976 58.3634L74.0195 58.3184C74.075 59.1956 74.249 59.9991 74.249 59.9991ZM73.9333 54.2912C73.9333 55.9563 73.9107 56.2214 73.6182 56.8476C73.061 58.0302 71.9217 58.5604 70.5875 58.5604C69.1572 58.5604 68.4305 57.7882 68.4305 56.8722C68.4305 56.0776 68.795 55.2794 70.928 54.8221C71.9523 54.6026 72.8237 54.4658 73.5178 54.3569L73.5187 54.3568C73.6648 54.3338 73.8031 54.3121 73.9333 54.2912Z" fill="#111111"/>
</svg>
