<svg width="200" height="100" viewBox="0 0 200 100" fill="none" xmlns="http://www.w3.org/2000/svg">
<path fill-rule="evenodd" clip-rule="evenodd" d="M30.5723 33.5725H64.0352H64.8902H170.427V57.2648V58.1198V67.4275H64.8902H64.0352H30.5723V33.5725ZM64.8902 66.572V58.1198H169.572V66.572H64.8902ZM64.8902 34.427V57.264H169.572V34.427H64.8902ZM64.0348 66.572V34.427H31.4268V66.572H64.0348ZM140.228 62.2643C140.228 63.1946 139.753 64.0916 138.644 64.0916C137.536 64.0916 137.06 63.1946 137.06 62.2643C137.06 61.3133 137.583 60.4297 138.644 60.4366C139.704 60.4297 140.228 61.3133 140.228 62.2643ZM140.957 62.2643C140.957 60.8784 140.103 59.8474 138.644 59.8474C137.184 59.8474 136.33 60.8784 136.33 62.2643C136.33 63.6831 137.177 64.6806 138.644 64.6806C140.11 64.6806 140.957 63.6831 140.957 62.2643ZM99.8307 61.9358C100.484 61.9358 100.87 61.6551 100.87 61.2064C100.87 60.7846 100.539 60.5172 99.9056 60.5172H99.2452V61.9358H99.8307ZM99.7339 59.928C100.625 59.928 101.486 60.0575 101.59 60.9947C101.597 61.0572 101.6 61.1233 101.6 61.1932C101.6 61.7621 101.166 62.1637 100.609 62.2575V62.2706C100.822 62.3512 100.925 62.4513 101.076 62.7396L101.986 64.6H101.2L100.464 62.98C100.25 62.5249 100.024 62.5249 99.6583 62.5249H99.2452V64.6H98.5564V59.928H99.7339ZM69.1779 64.6H69.8665V59.928H69.1779V64.6ZM75.5059 60.7582L77.6821 64.6H78.5633V59.928H77.8747V63.69H77.8612L75.74 59.928H74.8038V64.6H75.4924V60.7582H75.5059ZM84.4593 60.5172H82.9648V59.928H86.6418V60.5172H85.1478V64.6H84.4593V60.5172ZM91.0845 59.928H93.7767V60.5172H91.7728V61.8823H93.598V62.4714H91.7728V64.011H93.7767V64.6H91.0845V59.928ZM107.454 59.928H106.518H106.518V64.6H107.206V60.7582H107.219L109.395 64.6H110.277V59.928H109.588V63.69H109.574L107.454 59.928ZM116.117 62.873L117.074 60.5575L118.032 62.873H116.117ZM116.738 59.928L114.685 64.6H115.408L115.897 63.4218H118.252L118.74 64.6H119.492L117.46 59.928H116.738ZM124.354 60.5172H122.86V59.928H126.537V60.5172H125.043V64.6H124.354V60.5172ZM130.946 64.6H131.633V59.928H130.946V64.6ZM146.35 60.7582L148.526 64.6H149.407V59.928H148.719V63.69H148.705L146.583 59.928H145.647V64.6H146.336V60.7582H146.35ZM155.248 62.873L156.205 60.5575L157.162 62.873H155.248ZM155.867 59.928L153.816 64.6H154.539L155.028 63.4218H157.382L157.871 64.6H158.621L156.591 59.928H155.867ZM163.03 59.928H163.718V64.011H165.729V64.6H163.03V59.928ZM47.6816 38.6045C48.0664 38.9664 48.4653 39.3351 48.8684 39.7077C49.7532 40.5255 50.6577 41.3615 51.4752 42.1827L50.0846 43.9248V44.0107L53.7714 45.6126L56.2629 43.9485L54.7597 42.3233V42.2063C55.3916 41.7711 55.9871 41.3425 56.5727 40.9211L56.5732 40.9208L56.5732 40.9207L56.5735 40.9205C57.4178 40.3129 58.2415 39.7201 59.1241 39.1436L58.4005 46.4248H36.8801L36.1568 39.1436C37.0389 39.7199 37.8622 40.3124 38.706 40.9198L38.7061 40.9198L38.7061 40.9198L38.7061 40.9198L38.7062 40.9199L38.7063 40.9199L38.7065 40.9201C39.2925 41.3418 39.8884 41.7708 40.5208 42.2063V42.3233L39.0177 43.9485L41.5092 45.6126L45.1963 44.0107V43.9248L43.8057 42.1827C44.6239 41.3605 45.5295 40.5235 46.4153 39.7048L46.4156 39.7046C46.8175 39.3331 47.2153 38.9654 47.599 38.6045H47.6816ZM58.2357 47.7375L58.0185 50.1641L50.0516 50.1611L50.0541 58.5448L53.9342 58.5202C54.7994 58.519 55.7105 57.6334 55.5253 57.0518C55.3165 56.2079 54.5369 55.6455 53.8137 55.2237C53.9015 55.2237 54.9143 54.5226 55.9758 53.7878L55.9758 53.7878C56.6647 53.311 57.374 52.8199 57.8643 52.4972C57.8322 52.7947 57.5299 55.1388 57.2736 57.1257L57.2735 57.1266C57.0791 58.6333 56.9113 59.9345 56.908 59.9817L47.7135 63.3799H47.5669L38.3728 59.9817C38.3694 59.9354 38.2082 58.6857 38.0189 57.2182C37.7602 55.2122 37.449 52.7993 37.4165 52.4972C37.9067 52.8199 38.6161 53.3109 39.3049 53.7878C40.3664 54.5226 41.3793 55.2237 41.467 55.2237C40.7435 55.6455 39.9643 56.2079 39.7551 57.0518C39.5703 57.6334 40.4812 58.519 41.3463 58.5202L45.2266 58.5448L45.2291 50.1611L37.2626 50.1641L37.0454 47.7375H58.2357ZM111.864 43.3633H112.105V40.804C111.045 40.1953 109.81 39.9612 108.588 39.9612C104.35 39.9612 102.119 42.7705 102.119 45.5485C102.119 49.0755 105.105 50.9484 108.46 50.9484C109.6 50.9484 110.708 50.7612 111.736 50.2774C112.121 49.3723 112.426 48.4358 112.618 47.4838L112.394 47.39C111.671 49.0755 110.836 50.5738 108.734 50.5738C106.405 50.5738 103.981 48.4358 103.981 45.3611C103.981 42.6767 105.635 40.3357 108.572 40.3357C110.5 40.3357 111.559 41.5998 111.864 43.3633ZM97.9593 50.7665C97.6139 50.8237 97.2948 50.8445 96.9943 50.8445C96.32 50.8445 96.0635 50.47 95.9832 49.8614C95.4692 50.4231 94.7628 50.9226 93.9437 50.9226C92.9169 50.9226 92.338 50.0797 92.338 49.1432C92.338 48.9093 92.3704 48.6907 92.4351 48.4565L95.9832 46.8959C96.1112 45.1947 95.6622 44.4926 94.3931 44.4926C93.3831 44.4926 93.3882 44.9213 93.3969 45.648C93.3978 45.7179 93.3986 45.7906 93.3986 45.8659L92.5957 45.9128L92.5658 45.9129C92.433 45.914 92.226 45.9157 92.226 45.7567C92.226 45.3353 93.9923 43.7121 95.2931 43.7121C96.7695 43.7121 97.2191 44.8047 97.2191 46.0532V48.2695C97.2191 48.3755 97.2183 48.4784 97.2175 48.5779V48.5781V48.5782V48.5783V48.5784V48.5786V48.5787V48.5788V48.5789V48.579V48.5791C97.2085 49.7161 97.203 50.4182 98.4355 50.2903C99.0408 50.1264 99.1285 49.7987 99.1285 48.956V42.3221L99.1286 42.2831C99.1289 41.6582 99.129 41.4526 98.3422 40.9018V40.7457L100.188 40.0591L100.365 40.1213V48.956C100.365 50.2358 100.429 50.3605 101.617 50.5323V50.7665H97.9593ZM70.8222 45.4288C72.3634 45.4134 74.1618 44.7267 74.1618 42.9943C74.1618 41.1684 72.5079 40.4345 70.8222 40.4502V45.4288ZM69.4093 43.3687C69.4093 40.9812 69.329 40.6221 67.531 40.4659V40.2476L71.4482 40.1227C75.494 39.9977 75.8155 41.9174 75.8155 42.6667C75.8155 43.9774 74.9806 44.7267 73.8245 45.2262L73.9048 45.3353L73.9559 45.4225C75.1834 47.5156 76.7188 50.1339 79.3313 50.6572L79.2833 50.891C79.1185 50.8835 78.9578 50.8772 78.8013 50.871C77.3416 50.8132 76.239 50.7695 75.3978 49.9237C74.3382 48.8468 73.5033 47.4734 73.166 46.8025C72.6798 45.8213 72.2304 45.7981 71.5527 45.7633C71.3356 45.7521 71.0949 45.7397 70.8222 45.6942V48.207C70.8222 49.9237 70.8542 50.2358 73.0536 50.5323V50.7665H67.4183V50.5323C69.3453 50.2828 69.3611 49.8145 69.4093 48.207L69.4093 43.3687ZM81.6424 44.046C79.9085 44.046 79.2021 45.7938 79.2021 47.2299C79.2021 48.6812 80.037 50.5694 81.7709 50.5694C83.3925 50.5694 84.1147 48.7747 84.1147 47.4325C84.1147 45.9969 83.3925 44.046 81.6424 44.046ZM81.6586 50.9128C79.4591 50.9128 77.709 49.5552 77.709 47.339C77.709 45.1853 79.5232 43.7024 81.6745 43.7024C83.858 43.7024 85.6082 45.0761 85.6082 47.2764C85.6082 49.399 83.7778 50.9128 81.6586 50.9128ZM86.1186 45.2623L86.1187 45.2627L88.5753 51.3647L88.0455 52.5665C88.0275 52.6043 88.0048 52.6578 87.978 52.7211C87.8384 53.0505 87.5872 53.6434 87.291 53.6434C87.1369 53.6434 86.7879 53.4237 86.5721 53.2878L86.5721 53.2878L86.5718 53.2877L86.5717 53.2876L86.5716 53.2875L86.5712 53.2873C86.5175 53.2535 86.4721 53.2249 86.4401 53.2063C86.1187 53.3155 85.9261 53.6123 85.9261 53.9399C85.9261 54.377 86.2793 54.7203 86.7131 54.7203C87.355 54.7203 87.7727 54.2364 88.3664 52.7849L90.8391 46.7449L91.5131 45.2315C91.8187 44.6383 92.0427 44.3573 92.7497 44.2792V44.0451H89.9401V44.2792C91.1279 44.4353 90.9997 44.9817 90.2772 47.0105L89.2819 49.8199L87.7083 45.8555L87.6854 45.7989C87.3727 45.0259 87.0953 44.34 88.2864 44.2792V44.0451H84.9629V44.2792C85.7657 44.4042 85.8299 44.5602 86.1186 45.2623ZM93.8155 48.285C93.7514 48.4877 93.7028 48.6907 93.7028 48.9094C93.7028 49.5646 94.0888 50.1421 94.8269 50.1421C95.2608 50.1421 95.6939 49.8614 95.9832 49.5646V47.2082L93.8155 48.285ZM114.623 48.285C114.559 48.4877 114.51 48.6907 114.51 48.9094C114.51 49.5646 114.896 50.1421 115.634 50.1421C116.068 50.1421 116.502 49.8614 116.791 49.5646V47.2082L114.623 48.285ZM116.791 46.8959C116.919 45.1947 116.47 44.4926 115.201 44.4926C114.19 44.4926 114.195 44.9217 114.204 45.6491L114.204 45.6496C114.205 45.719 114.205 45.7912 114.205 45.8659L113.403 45.9128L113.373 45.9129C113.241 45.914 113.034 45.9157 113.034 45.7567C113.034 45.3353 114.8 43.7121 116.1 43.7121C117.577 43.7121 118.026 44.8047 118.026 46.0532V48.2695C118.026 48.3903 118.025 48.5079 118.024 48.6215C118.012 49.7998 118.004 50.5635 119.423 50.267V50.2685C119.878 50.0967 119.922 49.7219 119.933 48.8248V45.9698L119.933 45.9309C119.934 45.306 119.934 45.1003 119.147 44.5495V44.3935L121.057 43.7067L121.234 43.7694L121.17 45.611H121.202C121.554 44.7837 122.455 43.7067 123.466 43.7067C123.915 43.7067 124.285 43.9878 124.285 44.4249C124.285 44.8462 123.819 45.2362 123.449 45.408C123.419 45.3857 123.388 45.3616 123.355 45.3365L123.355 45.3364C123.089 45.1338 122.736 44.8651 122.422 44.8929C121.128 45.0113 121.162 46.9246 121.169 47.3229C121.169 47.3371 121.17 47.3494 121.17 47.3597C121.17 47.3651 121.17 47.37 121.17 47.3743V48.9506C121.17 50.2305 121.234 50.3555 122.775 50.527V50.7612H118.798C118.441 50.8224 118.111 50.8445 117.802 50.8445C117.127 50.8445 116.871 50.47 116.791 49.8614C116.277 50.4231 115.571 50.9226 114.752 50.9226C113.724 50.9226 113.146 50.0797 113.146 49.1432C113.146 48.9093 113.178 48.6907 113.242 48.4565L116.791 46.8959ZM152.772 48.2797C152.709 48.4826 152.66 48.6853 152.66 48.9041C152.66 49.5596 153.045 50.137 153.785 50.137C154.217 50.137 154.651 49.856 154.94 49.5596V47.2028L152.772 48.2797ZM154.94 46.8905C155.069 45.1896 154.619 44.4872 153.35 44.4872C152.34 44.4872 152.345 44.9167 152.354 45.6447C152.354 45.714 152.355 45.786 152.355 45.8606L151.552 45.9074L151.523 45.9076C151.39 45.9087 151.183 45.9104 151.183 45.7513C151.183 45.33 152.949 43.7067 154.249 43.7067C155.727 43.7067 156.176 44.7994 156.176 46.0478V48.2639C156.176 48.4345 156.173 48.5974 156.169 48.7517L156.169 48.7524C156.147 49.7898 156.133 50.4387 157.246 50.437C158.04 50.3205 158.108 50.0186 158.123 48.9506L158.123 45.9698L158.123 45.9339C158.123 45.3066 158.123 45.1012 157.335 44.5495V44.3935L159.247 43.7067L159.423 43.7694L159.294 44.9086C160.209 44.2531 161.092 43.7067 162.12 43.7067C164.047 43.7067 164.143 45.252 164.143 46.1727V48.9506C164.143 50.2305 164.207 50.3555 165.395 50.527V50.7612H161.654V50.527C162.843 50.3555 162.89 50.1682 162.908 48.9506V47.1559L162.908 47.0797C162.909 45.9932 162.91 44.5184 160.996 44.5184C160.339 44.5184 159.889 44.7214 159.359 45.1896V48.9506C159.359 50.2305 159.423 50.3555 160.612 50.527V50.7612H157.205C156.805 50.8502 156.506 50.846 156.18 50.8413C156.105 50.8402 156.029 50.8391 155.951 50.8391C155.278 50.8391 155.02 50.4646 154.94 49.856C154.427 50.4177 153.72 50.9172 152.902 50.9172C151.873 50.9172 151.296 50.0743 151.296 49.1382C151.296 48.904 151.328 48.6853 151.391 48.4512L154.94 46.8905ZM127.399 41.107C127.399 41.5441 127.029 41.9032 126.58 41.9032C126.13 41.9032 125.76 41.5441 125.76 41.107C125.76 40.6702 126.13 40.3115 126.58 40.3115C127.029 40.3115 127.399 40.6702 127.399 41.107ZM124.782 50.7612V50.527C125.969 50.3555 126.018 50.1682 126.034 48.9506V45.9698L126.034 45.9393C126.034 45.3078 126.034 45.1027 125.054 44.5495V44.3935L127.093 43.7067L127.271 43.7694V48.9506C127.271 50.2305 127.334 50.3555 128.523 50.527V50.7612H124.782ZM132.367 50.4335C130.505 50.4335 130.345 49.0444 130.345 47.593V44.8305C130.842 44.6276 131.291 44.4872 131.838 44.4872C133.396 44.4872 134.679 45.7045 134.679 47.5773C134.679 49.7468 133.251 50.4335 132.367 50.4335ZM129.108 42.2778L129.108 42.3167V50.2928C129.976 50.6676 130.698 50.9172 131.662 50.9172C133.427 50.9172 136.044 49.7153 136.044 46.953C136.044 45.3142 134.809 43.7067 133.025 43.7067C132.111 43.7067 131.131 44.1597 130.345 44.5806V40.116L130.169 40.0537L128.322 40.7404V40.8965C129.108 41.447 129.108 41.6529 129.108 42.2778ZM138.022 47.593C138.022 49.0444 138.183 50.4335 140.045 50.4335C140.928 50.4335 142.356 49.7468 142.356 47.5773C142.356 45.7045 141.072 44.4872 139.515 44.4872C138.969 44.4872 138.519 44.6276 138.022 44.8305V47.593ZM136.786 42.3167L136.786 42.2792C136.786 41.6532 136.786 41.4474 136 40.8965V40.7404L137.845 40.0537L138.022 40.116V44.5806C138.809 44.1597 139.788 43.7067 140.703 43.7067C142.485 43.7067 143.721 45.3142 143.721 46.953C143.721 49.7153 141.105 50.9172 139.338 50.9172C138.375 50.9172 137.654 50.6676 136.786 50.2928V42.3167ZM147.572 44.0501C148.422 44.0501 148.873 44.8617 149.016 45.5798L145.935 45.7045C146.111 44.924 146.657 44.0501 147.572 44.0501ZM148.648 49.9184C146.833 49.9184 145.694 48.4046 145.822 46.7814L145.886 46.0009H150.542C150.478 44.5964 149.514 43.7067 148.07 43.7067C145.902 43.7067 144.457 45.4392 144.457 47.4523C144.457 49.3254 145.837 50.9172 147.829 50.9172C149.081 50.9172 150.173 50.1213 150.783 49.1067L150.542 48.9352C150.061 49.5596 149.483 49.9184 148.648 49.9184Z" fill="#111111"/>
</svg>
