<svg width="200" height="100" viewBox="0 0 200 100" fill="none" xmlns="http://www.w3.org/2000/svg">
<path fill-rule="evenodd" clip-rule="evenodd" d="M53.0132 55.4522C58.5175 55.4522 61.9977 52.5594 61.9977 47.52C61.9974 41.9826 58.2743 40 52.2038 40C49.8561 40 47.023 40.1648 45 40.4126V60.1632H50.9082V55.4522H53.0132ZM56.1709 47.6016C56.1709 50.1639 54.9562 51.8992 51.88 51.8992H50.9079V43.7391C51.2535 43.7191 51.5762 43.7191 51.88 43.7191C54.7928 43.7189 56.1709 45.1233 56.1709 47.6016ZM127.884 51.8992C130.961 51.8992 132.174 50.1639 132.174 47.6016C132.174 45.1233 130.797 43.7189 127.884 43.7191C127.581 43.7191 127.257 43.7191 126.915 43.7391V51.8992H127.884ZM129.02 55.4522C134.519 55.4522 138.002 52.5594 138.002 47.52C138.002 41.9826 134.279 40 128.208 40C125.861 40 123.026 40.1648 121.003 40.4126V60.1632H126.914V55.4522H129.02ZM148.441 43.8828C146.743 43.8828 145.69 44.3793 145.69 45.4531C145.69 46.7346 147.24 47.2869 149.075 47.9409C151.738 48.8895 155 50.0518 155 53.9635C155 58.9224 150.952 60.5755 146.016 60.5755C144.073 60.5755 141.645 60.246 139.866 59.5851L139.216 55.0388C140.997 55.9473 143.994 56.608 145.933 56.608C148.12 56.608 149.011 55.9473 149.011 54.709C149.011 53.4029 147.496 52.8567 145.693 52.2071C143.047 51.2537 139.783 50.0775 139.783 45.9505C139.783 41.922 143.019 40 147.795 40C150.304 40 151.68 40.2478 153.219 40.5785L153.704 44.8769C152.329 44.2962 150.304 43.8828 148.441 43.8828ZM116.553 40.4126H110.645V60.1632H116.553V40.4126ZM86.6847 40.4126H92.5934V60.1632H86.6847V40.4126ZM102.873 56.1954V40.4126H96.9642V60.1632H107.649L108.539 56.1954H102.873ZM76.4055 40.4126H82.3142L82.314 60.1632H76.4052V52.3946H70.2535V60.1632H64.344V40.4126H70.2538V48.2629H76.4055V40.4126Z" fill="#111111"/>
</svg>
