<svg width="200" height="100" viewBox="0 0 200 100" fill="none" xmlns="http://www.w3.org/2000/svg">
<path fill-rule="evenodd" clip-rule="evenodd" d="M97.6082 33.8281C129.291 28.3121 156.239 31.111 157.801 40.0799C158.593 44.6238 152.709 49.8777 142.604 54.6763C142.891 54.2557 143.074 53.7637 143.126 53.1824C143.164 52.7705 143.168 52.6051 143.169 52.3814V49.0939H138.803V50.9419H140.037V52.6578C140.039 52.7825 140.035 52.961 140.008 53.1109C139.994 53.1979 139.836 53.9611 138.816 53.9611C137.788 53.9611 137.63 53.1979 137.614 53.1109C137.595 53.0005 137.585 52.85 137.588 52.6578V47.12C137.588 46.8969 137.604 46.6955 137.636 46.5553C137.693 46.3001 137.922 45.7063 138.805 45.7063C139.699 45.7063 139.917 46.299 139.968 46.5548C140.003 46.7224 140.007 46.9907 140.007 47.0062V47.7242H143.145V47.243L143.145 47.2281C143.146 47.1047 143.147 46.7837 143.116 46.4821C142.871 43.9761 140.644 43.4549 138.827 43.4549C136.48 43.4549 134.786 44.3383 134.529 46.4804C134.505 46.6795 134.479 47.0651 134.479 47.2848L134.478 52.3803C134.479 52.6103 134.485 52.7791 134.521 53.1824C134.722 55.3989 136.658 56.2113 138.826 56.2113C138.919 56.2113 139.009 56.205 139.098 56.1987C139.146 56.1953 139.193 56.192 139.241 56.1896C129.712 60.2563 117.191 63.8854 103.264 66.3096C71.5821 71.8256 44.6344 69.0295 43.0707 60.0595C42.2686 55.4487 48.3396 50.1083 58.7176 45.2548C58.5852 45.5285 58.4923 45.8196 58.4418 46.1194C58.3434 46.7241 58.3531 47.2024 58.4716 47.7643C58.7764 49.2011 60.3294 50.0506 61.7119 50.8069C62.7345 51.3663 63.6638 51.8746 63.9258 52.5319C64.0351 52.8054 64.0087 53.163 63.9487 53.4055C63.8194 53.9331 63.4452 54.1911 62.8044 54.1911C62.1281 54.1911 61.6315 53.8141 61.6315 53.1309L61.6298 51.9157H58.2994L58.2971 52.8912C58.2971 54.9532 59.5798 56.4488 62.7374 56.4488C64.9997 56.4488 66.7767 55.6684 67.0645 53.6458C67.2053 52.6578 67.116 51.9672 67.0502 51.6445C66.7596 50.1918 65.0891 49.2974 63.6705 48.5379C62.6402 47.9863 61.7427 47.5057 61.6029 46.9341C61.5557 46.7305 61.5514 46.5192 61.5903 46.3139C61.7065 45.7944 62.0663 45.5306 62.6505 45.5306C63.3456 45.5306 63.7381 45.9363 63.7381 46.5908V47.3763H66.8448V46.4867C66.8448 45.6199 66.5891 44.9242 66.0827 44.4172C65.4351 43.7713 64.3692 43.4417 62.932 43.4103C72.2882 39.5644 84.3025 36.1458 97.6082 33.8281ZM74.0595 45.1759L75.6489 55.9756H78.9805L76.7411 43.7793H71.2755L69.0224 55.9756H72.3723L74.0023 45.1759H74.0595ZM91.7615 55.9756L91.6877 45.3847H91.6339L89.6629 55.9756H86.519L84.5577 45.3847H84.5016L84.4301 55.9756H81.3148L81.5849 43.7793H86.5957L88.0546 52.8391H88.1261L89.5891 43.7793H94.5976L94.8665 55.9756H91.7615ZM102.146 56.3875C103.782 56.3875 106.096 55.9745 106.432 53.6121C106.571 52.628 106.482 51.9477 106.417 51.6308C106.128 50.1936 104.475 49.3111 103.07 48.5607C102.046 48.014 101.154 47.5373 101.015 46.9673C100.967 46.7661 100.962 46.5572 101 46.3539C101.117 45.8396 101.472 45.5781 102.061 45.5781C102.724 45.5781 103.136 45.9626 103.136 46.6274V47.4038H106.213V46.5239C106.213 45.6662 105.959 44.9768 105.457 44.4745C104.785 43.8016 103.663 43.4652 102.121 43.4652C100.398 43.4652 98.257 43.9286 97.8954 46.1594C97.7976 46.7579 97.8062 47.2316 97.9252 47.7894C98.2241 49.2056 99.7666 50.0529 101.138 50.8062C102.149 51.3618 103.068 51.8663 103.325 52.5101C103.43 52.7779 103.406 53.1326 103.346 53.3758C103.217 53.8976 102.847 54.1516 102.214 54.1516C101.504 54.1516 101.045 53.7528 101.045 53.1012L101.043 51.9008H97.7524L97.7507 52.8643C97.7507 55.2267 99.4305 56.3875 102.146 56.3875ZM117.828 52.5039C117.832 52.7327 117.81 53.1898 117.797 53.3071C117.61 55.3165 116.172 56.3378 113.537 56.3378C110.89 56.3378 109.452 55.3165 109.266 53.3071C109.244 53.0407 109.234 52.7734 109.235 52.5061V43.7764H112.383V52.7813C112.38 52.9827 112.39 53.1315 112.41 53.235C112.449 53.4353 112.648 54.0852 113.537 54.0852C114.422 54.0852 114.621 53.4347 114.663 53.2373C114.681 53.1309 114.692 52.9747 114.692 52.7808V43.7764H117.828V52.5039ZM127.01 55.8514H131.39V43.7793H128.315L128.476 53.0594H128.412L125.695 43.7793H121.131V55.8514H124.183L124.02 46.1909H124.07L127.01 55.8514Z" fill="#111111"/>
</svg>
