<svg xmlns="http://www.w3.org/2000/svg" viewBox="0 0 380 300" width="380" height="300" preserveAspectRatio="xMidYMid meet" style="width: 100%; height: 100%; transform: translate3d(0px, 0px, 0px); content-visibility: visible;"><defs><clipPath id="__lottie_element_4"><rect width="380" height="300" x="0" y="0"/></clipPath><linearGradient id="__lottie_element_19" spreadMethod="pad" gradientUnits="userSpaceOnUse" x1="0" y1="0" x2="100" y2="0"><stop offset="0%" stop-color="rgb(226,226,226)" stop-opacity="1"/><stop offset="50%" stop-color="rgb(226,226,226)" stop-opacity="0.5"/><stop offset="100%" stop-color="rgb(226,226,226)" stop-opacity="0"/></linearGradient><linearGradient id="__lottie_element_26" spreadMethod="pad" gradientUnits="userSpaceOnUse" x1="0" y1="0" x2="100" y2="0"><stop offset="0%" stop-color="rgb(226,226,226)" stop-opacity="1"/><stop offset="50%" stop-color="rgb(226,226,226)" stop-opacity="0.5"/><stop offset="100%" stop-color="rgb(226,226,226)" stop-opacity="0"/></linearGradient></defs><g clip-path="url(#__lottie_element_4)"><g transform="matrix(1.399999976158142,0,0,1.399999976158142,195.91200256347656,45.79059982299805)" opacity="1" style="display: block;"><g opacity="1" transform="matrix(1,0,0,1,0,0)"><path stroke-linecap="round" stroke-linejoin="round" fill-opacity="0" stroke="rgb(232,84,91)" stroke-opacity="1" stroke-width="74" d=" M37,37 C37,37 17.08740997314453,108.36100006103516 17.08740997314453,108.36100006103516"/></g><g opacity="1" transform="matrix(1,0,0,1,0,0)"><path fill="url(#__lottie_element_26)" fill-opacity="1" d=" M359.9200134277344,67.72100067138672"/><path stroke-linecap="round" stroke-linejoin="round" fill-opacity="0" stroke="rgb(232,84,91)" stroke-opacity="1" stroke-width="74" d=" M359.9200134277344,67.72100067138672"/></g></g><g transform="matrix(1.399999976158142,0,0,1.399999976158142,92.08660125732422,48.03059768676758)" opacity="1" style="display: block;"><g opacity="1" transform="matrix(1,0,0,1,0,0)"><path stroke-linecap="round" stroke-linejoin="round" fill-opacity="0" stroke="rgb(144,103,147)" stroke-opacity="1" stroke-width="74" d=" M37,37 C37,37 17.80714225769043,108.36100006103516 17.80714225769043,108.36100006103516"/></g></g><g transform="matrix(1.399999976158142,0,0,1.399999976158142,196.61195373535156,19.890602111816406)" opacity="1" style="display: block;"><g opacity="1" transform="matrix(1,0,0,1,0,0)"><path stroke-linecap="butt" stroke-linejoin="miter" fill-opacity="0" stroke-miterlimit="4" stroke="rgb(232,84,91)" stroke-opacity="1" stroke-width="74" d="M0 0"/></g><g opacity="1" transform="matrix(1,0,0,1,0,0)"><path fill="url(#__lottie_element_19)" fill-opacity="1" d="M0 0"/><path stroke-linecap="round" stroke-linejoin="round" fill-opacity="0" stroke="rgb(232,84,91)" stroke-opacity="1" stroke-width="74" d="M0 0"/></g></g><g transform="matrix(1.399999976158142,0,0,1.399999976158142,92.78654479980469,21.430620193481445)" opacity="1" style="display: block;"><g opacity="1" transform="matrix(1,0,0,1,0,0)"><path stroke-linecap="butt" stroke-linejoin="miter" fill-opacity="0" stroke-miterlimit="4" stroke="rgb(144,103,147)" stroke-opacity="1" stroke-width="74" d="M0 0"/></g></g><g transform="matrix(1.399999976158142,0,0,1.399999976158142,64.75460052490234,149.43539428710938)" opacity="1" style="display: block;"><g opacity="1" transform="matrix(1,0,0,1,37.33000183105469,37.33000183105469)"><path fill="rgb(216,169,106)" fill-opacity="1" d=" M37.08100128173828,0 C37.08100128173828,20.479000091552734 20.479000091552734,37.08000183105469 -0.0010000000474974513,37.08000183105469 C-20.479999542236328,37.08000183105469 -37.08100128173828,20.479000091552734 -37.08100128173828,0 C-37.08100128173828,-20.479000091552734 -20.479999542236328,-37.08000183105469 -0.0010000000474974513,-37.08000183105469 C20.479000091552734,-37.08000183105469 37.08100128173828,-20.479000091552734 37.08100128173828,0z"/></g></g><g transform="matrix(0.699999988079071,0,0,0.699999988079071,194.71168518066406,175.56640625)" opacity="1" style="display: block;"><path stroke-linecap="butt" stroke-linejoin="miter" fill-opacity="0" stroke-miterlimit="4" stroke="rgb(216,169,106)" stroke-opacity="1" stroke-width="75" d=" M37.33,0.25 C57.81,0.25 74.41,16.85 74.41,37.33 C74.41,37.33 74.41,37.33 74.41,37.33 C74.41,57.81 57.81,74.41 37.33,74.41 C16.85,74.41 0.25,57.81 0.25,37.33 C0.25,16.85 16.85,0.25 37.33,0.25 C37.33,0.25 37.33,0.25 37.33,0.25"/><g opacity="1" transform="matrix(1,0,0,1,37.33100128173828,37.33000183105469)"/></g></g></svg>