<svg width="200" height="100" viewBox="0 0 200 100" fill="none" xmlns="http://www.w3.org/2000/svg">
<path fill-rule="evenodd" clip-rule="evenodd" d="M120.264 54.6598V30.8742H111.027V25.2742C112.297 25.332 113.509 25.2165 114.78 24.9856C115.934 24.7546 117.031 24.3505 118.07 23.7732C119.052 23.1959 119.86 22.4454 120.495 21.5216C121.188 20.4825 121.65 19.2701 121.823 18H127.711V54.6598H120.264ZM98.1527 42.7093L101.213 54.1979H104.503L99.6538 37.8598L98.1527 42.7093ZM105.023 27.1216C104.965 26.9485 104.85 26.833 104.676 26.833L95.1507 24.9278L78.9857 73.4227C78.928 73.6536 78.6971 73.7691 78.4661 73.7113C78.2352 73.6536 78.1197 73.4227 78.1775 73.1917V73.134L94.1692 24.9856L88.8001 27.5835C88.6847 27.6412 88.6269 27.699 88.5692 27.8144L72.5775 72.2103C72.5197 72.4412 72.5775 72.6722 72.8084 72.7299L77.6001 74.9814C77.629 74.9814 77.6579 74.9959 77.6867 75.0103C77.7156 75.0247 77.7445 75.0392 77.7733 75.0392H77.8311L88.8001 73.5959C88.9733 73.5959 89.0888 73.4227 89.1465 73.3072L91.9177 63.7814L99.8269 63.3773L107.274 62.9732C107.448 62.9732 107.621 63.0887 107.678 63.2619L109.526 69.4969C109.584 69.7278 109.468 69.9588 109.237 70.0165H109.122C108.949 70.0165 108.775 69.901 108.718 69.7278L106.986 63.7814L103.637 63.9546L105.138 70.0742C105.196 70.2474 105.311 70.3629 105.485 70.4206L109.353 71.1711H109.41L111.489 70.8825L117.262 70.1897C117.493 70.1897 117.666 69.9588 117.666 69.7278V69.6124L105.023 27.1216ZM105.427 54.8907C105.369 55.0062 105.196 55.0639 105.081 55.0639H93.8806C93.6496 55.0639 93.4764 54.8907 93.4187 54.6598C93.4187 54.6021 93.4187 54.5443 93.4764 54.4866L99.2496 36.2433C99.3074 36.0701 99.4806 35.9546 99.6538 35.9546C99.8269 35.9546 100 36.0701 100.058 36.2433L105.485 54.4866C105.542 54.6598 105.485 54.7753 105.427 54.8907Z" fill="#111111"/>
</svg>
