<svg width="200" height="100" viewBox="0 0 200 100" fill="none" xmlns="http://www.w3.org/2000/svg">
<path fill-rule="evenodd" clip-rule="evenodd" d="M133.896 39.3136C133.109 38.6625 129.662 35.8111 125.556 36.787C120.239 38.0563 116.983 44.6583 115.816 48.255C110.524 64.6721 119.673 62.719 120.485 62.5457C120.502 62.5421 120.516 62.5392 120.525 62.5373L123.974 51.6225C124.116 51.0876 124.245 49.7751 122.491 49.0508H134.501C133.011 49.599 132.166 50.4596 131.794 51.7787L128.335 62.6935C128.321 62.7006 128.301 62.7099 128.278 62.7214C127.323 63.1907 119.191 67.1851 111.803 63.5623C104.736 60.0919 106.104 47.1536 111.672 40.8373C120.457 30.8755 132.783 34.6308 135.131 35.3459C135.204 35.3681 135.267 35.3873 135.32 35.4031L134.041 39.4302C134.014 39.411 133.965 39.3708 133.896 39.3136ZM93.7668 45.0657C97.1855 36.6877 90.7884 34.4167 86.6131 34.4183H72.8061C73.958 35.2041 73.7671 36.2408 73.5428 36.8804L65.4983 62.3964C65.1752 63.4065 63.9748 64.4664 63.3286 64.6342L74.5088 64.6309C73.8943 64.5196 73.012 63.654 73.3301 62.4679L76.2516 53.2393C76.2516 53.2393 89.6969 55.0402 93.7668 45.0657ZM82.9048 36.7558C84.3613 36.7558 88.4145 36.9485 85.8027 44.554C83.0604 52.5382 76.9899 50.8952 76.9899 50.8952L81.4633 36.7558H82.9048ZM102.703 64.6347L110.218 64.6314C107.813 63.8655 104.253 61.6095 102.84 60.0013C103.985 58.7587 105.402 57.2004 105.66 54.0273H101.759C101.759 54.0273 102.509 54.4526 102.509 55.3596C102.509 56.2019 102.172 57.3582 101.513 58.1805C100.373 56.4993 99.1504 54.5821 98.7235 51.7729C99.0481 51.6113 99.401 51.4473 99.7721 51.2748C101.145 50.6368 102.766 49.8836 104.113 48.7144C105.732 47.3039 106.107 45.9765 106.132 45.1093V44.9997C106.132 44.0959 105.775 43.242 105.117 42.5941C103.989 41.4827 102.202 41.0292 100.337 41.3764C98.834 41.6571 97.5533 42.4496 96.9121 43.0427C94.6369 45.1492 94.3456 48.6346 94.3456 50.2079C94.3456 50.5917 94.3623 50.8824 94.3774 51.0519L94.0141 51.1914C93.8489 51.2517 93.656 51.3178 93.4412 51.3914L93.441 51.3914C91.5027 52.0552 87.7717 53.3328 86.343 56.584C86.1404 57.0392 85.8541 58.0294 85.8541 59.184C85.8541 60.1758 86.0651 61.2822 86.713 62.2923C87.8297 64.0217 89.7282 65.1182 92.7568 65.0667C96.0549 65.0118 99.2994 62.7774 99.8821 62.3687L99.9838 62.4622C100.615 63.0424 101.973 64.2907 102.703 64.6347ZM102.701 44.4581C102.311 46.8919 99.1404 49.3424 98.3636 49.6763C98.2263 48.309 98.2866 46.1543 99.4451 44.39C100.209 43.2238 101.215 42.7088 102.033 42.9912C102.685 43.2121 102.763 43.8152 102.701 44.4581ZM98.2866 60.709C97.8429 60.9848 96.1018 61.8603 94.4594 62.0165C92.9443 62.1561 90.423 61.5729 90.4297 58.5577C90.4313 55.9826 93.2557 54.1004 94.7792 53.4458C95.4137 55.9428 96.8016 58.757 98.2866 60.709Z" fill="#111111"/>
</svg>
