<svg width="200" height="100" viewBox="0 0 200 100" fill="none" xmlns="http://www.w3.org/2000/svg">
<path d="M77.1649 62.198L76.7694 61.5427H74.3104L73.9148 62.198H73.1582L75.1186 59.1109H75.9612L77.9216 62.198H77.1649ZM75.4453 59.68L74.5683 61.0943H76.4943L75.6173 59.68H75.4453Z" fill="#111111"/>
<path d="M85.1092 62.2325C84.4041 62.2325 84.1978 62.129 84.1978 61.3702V59.1109H84.8512V61.4564C84.8512 61.6461 84.92 61.6806 85.1436 61.6806H87.3447C87.5682 61.6806 87.637 61.6461 87.637 61.4564V59.1109H88.2905V61.3702C88.2905 62.1118 88.0841 62.2325 87.3791 62.2325H85.1092Z" fill="#111111"/>
<path d="M96.3736 62.198V59.611H94.5508V59.1109H98.8155V59.611H97.0099V62.198H96.3736Z" fill="#111111"/>
<path d="M106.003 62.2325C105.315 62.2325 105.057 62.0946 105.057 61.3702V59.9387C105.057 59.2316 105.332 59.0764 106.003 59.0764H108.41C109.098 59.0764 109.356 59.2144 109.356 59.9387V61.3702C109.356 62.0946 109.098 62.2325 108.41 62.2325H106.003ZM108.72 59.818C108.72 59.6283 108.651 59.5938 108.428 59.5938H106.003C105.779 59.5938 105.728 59.6283 105.728 59.818V61.4737C105.728 61.6634 105.797 61.6979 106.003 61.6979H108.445C108.668 61.6979 108.737 61.6634 108.737 61.4737V59.818H108.72Z" fill="#111111"/>
<path d="M120.19 62.1981V60.4217C120.19 60.1802 120.19 59.956 120.207 59.818H120.19L118.556 61.9566H118.384L116.734 59.818H116.716C116.734 59.956 116.734 60.1802 116.734 60.4044V62.1808H116.08V59.0937H116.871L118.47 61.215H118.488L120.087 59.0937H120.861V62.1808H120.19V62.1981Z" fill="#111111"/>
<path d="M128.495 62.2325C127.807 62.2325 127.549 62.0946 127.549 61.3702V59.9387C127.549 59.2316 127.824 59.0764 128.495 59.0764H130.902C131.59 59.0764 131.848 59.2144 131.848 59.9387V61.3702C131.848 62.0946 131.59 62.2325 130.902 62.2325H128.495ZM131.194 59.818C131.194 59.6283 131.126 59.5938 130.902 59.5938H128.46C128.237 59.5938 128.185 59.6283 128.185 59.818V61.4737C128.185 61.6634 128.254 61.6979 128.46 61.6979H130.902C131.126 61.6979 131.194 61.6634 131.194 61.4737V59.818Z" fill="#111111"/>
<path d="M142.459 61.4909C142.459 62.0601 142.149 62.198 141.547 62.198H138.555V59.1109H141.53C142.218 59.1109 142.424 59.2661 142.424 59.8353V60.094C142.424 60.3182 142.373 60.5251 142.08 60.5941V60.6113C142.338 60.6631 142.442 60.8356 142.442 61.1287V61.4909H142.459ZM141.805 59.8525C141.805 59.6455 141.736 59.611 141.513 59.611H139.191V60.3871H141.53C141.719 60.3871 141.805 60.3527 141.805 60.1457V59.8525ZM141.805 61.0598C141.805 60.8528 141.736 60.8183 141.513 60.8183H139.191V61.6634H141.513C141.736 61.6634 141.805 61.6289 141.805 61.4219V61.0598Z" fill="#111111"/>
<path d="M149.217 62.198V59.1109H149.871V62.198H149.217Z" fill="#111111"/>
<path d="M156.783 62.198V59.1109H157.436V61.6634H160.463V62.198H156.783Z" fill="#111111"/>
<path d="M166.912 62.198V59.1109H167.565V62.198H166.912Z" fill="#111111"/>
<path d="M165.76 42.7784C163.439 42.7784 161.496 43.0371 160.137 44.0029C158.865 44.917 158.16 46.2277 158.16 47.6765C158.16 50.5221 160.911 52.5572 164.299 52.5572H166.741C166.844 52.5572 166.93 52.5227 167.016 52.471L167.807 51.9536C167.824 51.9363 167.841 51.9019 167.841 51.8846C167.841 51.8501 167.807 51.8329 167.79 51.8329C164.66 51.7984 162.132 50.3497 162.132 48.0041C162.132 45.5896 164.385 44.0202 167.876 44.0202H176.663C176.8 44.0202 176.921 43.9685 177.007 43.8822L178.09 42.7957H165.76V42.7784Z" fill="#111111"/>
<path d="M138.505 42.9337L133.277 48.1766H135.392C135.53 48.1766 135.65 48.1249 135.736 48.0386L139.554 44.2099C139.691 44.0719 139.897 44.0719 140.035 44.2099L148.238 52.4365C148.324 52.5227 148.461 52.5745 148.582 52.5745H153.001L143.388 42.9337C143.302 42.8474 143.165 42.7957 143.044 42.7957H138.848C138.728 42.7784 138.591 42.8302 138.505 42.9337Z" fill="#111111"/>
<path d="M121.274 42.8819L114 48.3836C113.88 48.4698 113.708 48.4698 113.587 48.3836L106.296 42.8819C106.21 42.8129 106.107 42.7784 106.004 42.7784H100.725L112.229 51.4534C112.349 51.5397 112.521 51.5397 112.642 51.4534L121.343 44.8825C121.446 44.8135 121.584 44.8825 121.584 45.0032V52.5572H125.505V42.7784H121.567C121.463 42.7784 121.36 42.8129 121.274 42.8819Z" fill="#111111"/>
<path d="M90.0107 52.5572H93.9315V42.7784H90.0107V52.5572Z" fill="#111111"/>
<path d="M71.0759 47.4169C70.904 47.4169 70.818 47.6238 70.9384 47.7446L75.5986 52.4184C75.6846 52.5046 75.8221 52.5563 75.9425 52.5563H80.362L76.596 48.7966C76.51 48.7104 76.5616 48.5551 76.682 48.5551L78.264 48.4344C80.981 48.1412 82.2536 47.0374 82.2536 45.4853C82.2536 43.6399 80.5167 42.7948 77.0431 42.7948H60.4658L61.6868 43.8813C61.7727 43.9676 61.8931 44.0193 62.0307 44.0193H74.8763C77.473 44.0193 78.35 44.6402 78.35 45.7095C78.35 46.7098 77.1291 47.2961 74.5496 47.3479C71.3339 47.3996 71.0759 47.4169 71.0759 47.4169Z" fill="#111111"/>
<path d="M51.2309 33.603C46.6738 32.3268 41.7213 31.5679 36.8375 31.5852C31.9538 31.5679 27.0012 32.3268 22.4442 33.603C22.1347 33.6893 21.9111 33.9825 21.9111 34.3101C21.9111 46.5207 26.4682 61.6286 36.4248 68.2858C36.6656 68.4583 36.9923 68.4583 37.2502 68.2858C47.2069 61.6286 51.7811 46.5207 51.7639 34.3101C51.7639 33.9825 51.5404 33.6893 51.2309 33.603ZM37.1471 64.595C36.9751 64.7502 36.7 64.7502 36.528 64.595C30.4577 59.5763 26.9153 50.7116 25.5739 42.1746L24.0263 41.3467H25.4536H35.479C39.159 41.3467 39.6233 42.554 39.6233 43.4163C39.6233 44.2786 39.159 45.4859 35.479 45.4859H32.1429C32.0226 45.4859 31.9366 45.5894 31.9366 45.6928C31.9366 45.7446 31.9538 45.7963 32.0054 45.8481L43.2174 57.0928L44.4211 58.3L42.8391 57.7654C41.2398 60.4041 39.3654 62.7497 37.1471 64.595ZM44.851 53.678L38.1617 46.9691C38.0585 46.8656 38.1273 46.7104 38.2648 46.6931L39.5718 46.5552C42.3404 46.262 43.9224 44.865 43.9224 43.1231C43.9224 41.1053 41.7901 39.9842 38.2304 39.9842H25.2644C25.1268 38.8632 25.0409 37.7594 24.9893 36.6729C24.9721 36.3107 25.2128 36.0003 25.5568 35.9141C29.2712 35.0517 33.0887 34.6033 36.7344 34.6033H36.9407C40.5863 34.6033 44.4039 35.0517 48.1183 35.9141C48.4622 36.0003 48.703 36.3107 48.6858 36.6729C48.4107 42.209 47.1553 48.3143 44.851 53.678Z" fill="#111111"/>
</svg>
