<svg width="200" height="100" viewBox="0 0 200 100" fill="none" xmlns="http://www.w3.org/2000/svg">
<path fill-rule="evenodd" clip-rule="evenodd" d="M32.5756 36.8561L34.4286 52.5549L36.0757 33.459H32.1641L32.5756 36.8561ZM26.553 51.2687C26.553 55.5919 31.1857 57.4448 32.5756 57.9601C32.7814 58.0622 32.9366 58.0622 32.9366 58.0622H32.5756C30.7227 57.9601 22.6929 57.0332 22.6929 50.2389C22.6929 47.6757 23.7997 45.7764 24.8279 44.0119C25.72 42.481 26.553 41.0516 26.553 39.3779C26.553 36.6503 25.8842 35.9301 25.4727 35.7749C26.3473 36.033 29.5901 37.3192 29.5901 40.9229C29.5901 42.8624 28.9327 44.0443 28.2297 45.3085C27.4216 46.7615 26.553 48.3231 26.553 51.2687ZM39.0613 42.9808C39.0613 42.9808 46.37 52.1939 36.4873 57.9601C36.4873 57.9601 45.3403 56.8789 45.3403 51.165C45.3403 45.4519 39.0613 42.9808 39.0613 42.9808ZM60.2167 56.5179C59.9072 56.3636 59.6499 55.952 59.5985 54.6136L59.4441 47.5612H59.4956C59.6257 47.6697 60.0377 48.1146 60.6054 48.7277C61.3881 49.573 62.4668 50.7379 63.5109 51.7815C64.2897 52.5384 65.1261 53.3818 65.9163 54.1786L65.9164 54.1786C66.9541 55.225 67.9122 56.191 68.5552 56.7752L68.5595 56.7794C68.7142 56.9333 68.9172 57.1353 69.122 57.1353C69.2248 57.1353 69.2763 56.9818 69.2763 56.6217L69.4821 45.9158C69.5335 45.0403 69.6364 44.6802 70.0994 44.5773C70.3575 44.5259 70.4604 44.5259 70.6147 44.5259C70.8205 44.5259 70.9749 44.4744 70.9749 44.3715C70.9749 44.2172 70.7691 44.1657 70.5119 44.1657C70.0029 44.1657 69.5384 44.1881 69.222 44.2033C69.0587 44.2112 68.9348 44.2172 68.8647 44.2172C68.7518 44.2172 68.5699 44.2103 68.3393 44.2016C67.9397 44.1864 67.3937 44.1657 66.806 44.1657C66.6002 44.1657 66.3944 44.2172 66.3944 44.3715C66.3944 44.4744 66.4459 44.5259 66.7031 44.5259C66.9089 44.5259 67.3205 44.5259 67.5786 44.5773C67.9387 44.7308 68.093 45.0918 68.1445 46.0693L68.2988 53.6884H68.2474C68.1449 53.5856 67.8211 53.2503 67.3928 52.8067L67.3923 52.8062L67.392 52.8059L67.3915 52.8054L67.3901 52.804C66.5283 51.9115 65.2454 50.5829 64.4901 49.8282C62.019 47.3571 59.4458 44.6287 59.2906 44.423L59.2857 44.418L59.2857 44.418C58.9798 44.1121 58.7762 43.9085 58.6218 43.9085C58.4667 43.9085 58.4152 44.1143 58.4152 44.4744L58.2609 54.4086C58.2086 55.9006 58.1572 56.4159 57.7456 56.5702C57.4883 56.6217 57.1797 56.6217 56.9739 56.6217C56.8187 56.6217 56.7158 56.6739 56.7158 56.776C56.7158 56.8797 56.8187 56.9303 57.0768 56.9303C57.6923 56.9303 58.2572 56.9053 58.5918 56.8904L58.5919 56.8904L58.592 56.8904L58.5922 56.8904L58.5923 56.8904C58.7328 56.8842 58.8326 56.8797 58.8782 56.8797C59.0103 56.8797 59.1834 56.8865 59.4027 56.8951L59.4028 56.8951L59.4034 56.8951L59.4035 56.8951C59.7838 56.91 60.3031 56.9303 60.9884 56.9303C61.1942 56.9303 61.4008 56.8797 61.4008 56.776C61.4008 56.6731 61.2464 56.6217 61.0921 56.6217C60.834 56.6217 60.5254 56.6217 60.2167 56.5179ZM96.3506 45.7606C95.9905 44.9374 95.7332 44.7308 95.115 44.5773C94.8578 44.5259 94.5491 44.5259 94.4454 44.5259C94.2911 44.5259 94.2396 44.4744 94.2396 44.3715C94.2396 44.2172 94.4454 44.1657 94.652 44.1657C95.1622 44.1657 95.6722 44.1813 96.1307 44.1953C96.5051 44.2068 96.8452 44.2172 97.1231 44.2172C97.3215 44.2172 97.5768 44.2077 97.8685 44.1969L97.8686 44.1969C98.2576 44.1825 98.7115 44.1657 99.1818 44.1657C99.4399 44.1657 99.5942 44.2172 99.5942 44.3715C99.5942 44.4744 99.4913 44.5259 99.337 44.5259C99.0789 44.5259 98.7703 44.5259 98.6674 44.5773C98.5643 44.6892 98.5089 44.8368 98.513 44.9889C98.513 45.1947 98.6674 45.6577 98.8731 46.2236L101.756 53.8942H101.807C102.332 52.5414 103.653 49.2702 104.489 47.2012L104.49 47.1989L104.491 47.1952L104.492 47.1939L104.493 47.1898L104.494 47.1875L104.495 47.1866C104.801 46.4274 105.042 45.8319 105.152 45.5556C105.256 45.2976 105.306 45.0918 105.306 44.886C105.306 44.7308 105.256 44.6279 105.101 44.5773C104.895 44.5259 104.637 44.5259 104.381 44.5259C104.278 44.5259 104.123 44.4744 104.123 44.3715C104.123 44.2172 104.278 44.1657 104.587 44.1657C105.154 44.1657 105.634 44.1873 105.972 44.2025C106.155 44.2108 106.297 44.2172 106.388 44.2172C106.519 44.2172 106.725 44.2079 106.961 44.1972L106.961 44.1972C107.281 44.1828 107.658 44.1657 107.984 44.1657C108.19 44.1657 108.344 44.2172 108.344 44.3715C108.344 44.4744 108.242 44.5259 108.036 44.5259C107.88 44.5259 107.521 44.5259 107.212 44.6802C107.006 44.8345 106.749 45.144 106.286 46.1738C105.956 46.9604 105.676 47.5845 105.372 48.2621L105.372 48.2623L105.372 48.2629L105.371 48.2642L105.371 48.2644L105.371 48.2653L105.37 48.2662C105.058 48.9613 104.721 49.713 104.278 50.7542C103.677 52.0678 103.191 53.2063 102.807 54.1084C102.468 54.9039 102.207 55.5157 102.014 55.9014C101.939 56.0598 101.873 56.2006 101.815 56.3254C101.514 56.9721 101.413 57.1884 101.241 57.1884C101.036 57.1884 100.934 56.9342 100.63 56.1766L100.623 56.1595L96.3506 45.7606ZM83.3794 57.1868H83.4823C87.7026 57.1353 90.4309 54.0999 90.4317 50.2389C90.4317 46.3273 87.7548 43.9591 83.586 43.9591H83.4823C78.438 43.9591 76.5851 47.6649 76.5851 50.5468C76.5851 53.5324 78.5409 57.1868 83.3794 57.1868ZM83.4823 44.7831C83.436 44.7831 83.3794 44.7727 83.317 44.7613C83.2406 44.7472 83.1556 44.7316 83.0707 44.7316C81.1149 44.7316 78.9533 45.7614 78.9533 50.034C78.9533 53.2768 80.6004 55.9529 83.4823 56.2624C83.688 56.313 83.8947 56.313 84.1004 56.313C85.2845 56.313 88.0635 55.7471 88.0635 50.858C88.0635 47.2525 86.0563 44.9889 83.4823 44.7831ZM116.785 43.8562C116.631 43.8562 116.579 43.9591 116.373 44.4221V44.4736V44.525L112.102 55.0766C111.741 55.8997 111.433 56.5171 110.659 56.6208H110.146C109.99 56.6208 109.888 56.6731 109.888 56.7752C109.888 56.8789 110.042 56.9295 110.248 56.9295C110.837 56.9295 111.45 56.9066 111.851 56.8916C112.045 56.8843 112.189 56.8789 112.256 56.8789C112.513 56.8789 112.835 56.8916 113.156 56.9042C113.478 56.9169 113.8 56.9295 114.057 56.9295C114.213 56.9295 114.315 56.8789 114.315 56.7752C114.315 56.6723 114.263 56.6208 114.109 56.6208H113.801C113.286 56.6208 113.131 56.415 113.131 56.1055C113.131 55.8997 113.233 55.5405 113.389 55.0766L114.315 52.6569C114.315 52.554 114.367 52.5026 114.471 52.5026H118.227C118.329 52.5026 118.38 52.5533 118.431 52.6039L118.433 52.6063L119.771 56.2093C119.823 56.415 119.719 56.5694 119.617 56.6208C119.461 56.6208 119.359 56.6731 119.359 56.7752C119.359 56.8789 119.616 56.8789 119.873 56.8789C121.263 56.9295 122.498 56.9295 123.066 56.9295C123.733 56.9295 123.889 56.8789 123.889 56.7752C123.889 56.6723 123.785 56.6208 123.631 56.6208C123.425 56.6208 123.219 56.6208 122.91 56.5694C122.602 56.4673 122.086 56.2101 121.469 54.7173C120.774 53.1377 119.498 49.9495 118.52 47.5076L118.52 47.5074L118.52 47.5069L118.518 47.5029L118.517 47.4991L118.514 47.4931L118.514 47.4927C117.902 45.9623 117.407 44.7276 117.249 44.3707C117.093 43.9591 116.991 43.8562 116.785 43.8562ZM116.373 51.6803H117.918C117.968 51.6803 118.02 51.6288 117.968 51.5766L116.475 47.4085C116.475 47.3048 116.475 47.2525 116.424 47.2525H116.373C116.345 47.2525 116.332 47.285 116.317 47.3228C116.306 47.3525 116.293 47.3855 116.27 47.4085L114.777 51.5268C114.725 51.6288 114.777 51.6811 114.777 51.6811H116.373V51.6803ZM170.884 56.1578C170.884 56.5171 170.934 56.6208 171.192 56.7752C171.913 57.0332 172.684 57.1868 173.665 57.1876C174.591 57.1876 175.518 57.0341 176.341 56.4682C177.576 55.6433 177.938 54.5123 177.938 53.5332C177.938 51.8869 177.164 50.7534 175.158 49.2092L174.694 48.849C173.303 47.7678 172.892 47.2019 172.892 46.3788C172.892 45.4519 173.665 44.7308 174.9 44.7308C175.98 44.7308 176.546 45.1947 176.752 45.5556C177.113 45.9664 177.164 46.4808 177.164 46.6352C177.164 46.8426 177.215 46.9447 177.369 46.9447C177.525 46.9447 177.575 46.7903 177.575 46.3788C177.575 45.5091 177.603 44.9724 177.618 44.6876V44.6873C177.623 44.5845 177.627 44.5145 177.627 44.4736C177.627 44.3192 177.525 44.2678 177.369 44.2163C176.957 44.1135 176.238 43.9591 175.156 43.9591C172.789 43.9591 171.192 45.2976 171.192 47.0982C171.192 48.4889 171.862 49.6722 173.714 51.1144L174.539 51.7317C175.928 52.8129 176.134 53.6361 176.134 54.4078C176.134 55.3347 175.413 56.3636 173.92 56.3636C172.84 56.3636 171.862 55.8997 171.502 54.665C171.398 54.3555 171.296 53.9954 171.296 53.7896C171.296 53.6875 171.296 53.4801 171.14 53.4801C170.986 53.4801 170.986 53.6875 170.986 53.9439C170.934 54.202 170.884 55.2309 170.884 56.1578ZM160.949 49.0548C160.949 46.4808 160.949 46.0178 160.897 45.5042C160.846 44.9374 160.691 44.6288 160.331 44.5773C160.126 44.5259 159.867 44.5259 159.714 44.5259C159.508 44.5259 159.404 44.4744 159.404 44.3201C159.404 44.2172 159.559 44.1657 159.868 44.1657C160.199 44.1657 160.663 44.1805 161.094 44.1942C161.467 44.2061 161.815 44.2172 162.03 44.2172C162.211 44.2172 162.511 44.2072 162.847 44.1961C163.276 44.1819 163.765 44.1657 164.14 44.1657C164.294 44.1657 164.45 44.2172 164.45 44.3201C164.45 44.4744 164.346 44.5259 164.192 44.5259C164.037 44.5259 163.882 44.5259 163.676 44.5773C163.212 44.6288 163.059 44.9374 163.007 45.5042V51.9881C163.007 53.6884 163.007 54.9754 163.058 55.7462C163.109 56.2101 163.264 56.5179 163.728 56.5694C163.986 56.6208 164.345 56.6208 164.655 56.6208C164.809 56.6208 164.86 56.6723 164.86 56.7752C164.86 56.8789 164.757 56.9295 164.602 56.9295C163.912 56.9295 163.24 56.9107 162.716 56.896C162.381 56.8866 162.106 56.8789 161.925 56.8789C161.772 56.8789 161.491 56.888 161.166 56.8984C160.724 56.9127 160.201 56.9295 159.814 56.9295C159.556 56.9295 159.454 56.8789 159.454 56.7752C159.454 56.6731 159.506 56.6208 159.762 56.6208C159.968 56.6208 160.175 56.6208 160.33 56.5694C160.69 56.5179 160.794 56.2093 160.843 55.694C160.947 54.9745 160.947 53.6875 160.947 51.9873V49.0548H160.949ZM144.941 45.1947L147.515 45.1432H147.519V51.9873C147.519 53.5838 147.519 54.9223 147.415 55.5919C147.363 56.1578 147.261 56.5179 146.9 56.5694C146.746 56.6208 146.54 56.6208 146.282 56.6208C146.076 56.6208 146.024 56.6731 146.024 56.7752C146.024 56.8789 146.128 56.9295 146.334 56.9295C146.719 56.9295 147.259 56.9127 147.717 56.8984L147.717 56.8984L147.718 56.8984C148.053 56.8879 148.343 56.8789 148.495 56.8789C148.674 56.8789 148.936 56.8864 149.259 56.8956C149.774 56.9104 150.444 56.9295 151.173 56.9295C151.326 56.9295 151.481 56.8789 151.481 56.7752C151.481 56.6723 151.379 56.6208 151.223 56.6208C150.965 56.6208 150.605 56.6208 150.347 56.5694C149.834 56.5179 149.73 56.1578 149.679 55.6425C149.576 54.9231 149.576 53.5846 149.576 51.9881V45.1432L151.737 45.1947C153.229 45.1947 153.693 45.7091 153.693 46.0693V46.2759C153.743 46.5339 153.795 46.5854 153.899 46.5854C154.028 46.5854 154.049 46.5131 154.082 46.3994L154.082 46.3991C154.089 46.3767 154.096 46.3527 154.105 46.3273C154.105 46.0814 154.119 45.6614 154.133 45.2675C154.145 44.9197 154.156 44.5922 154.156 44.423C154.156 44.1657 154.104 44.0628 154 44.0628C153.957 44.0628 153.894 44.0749 153.803 44.0922C153.568 44.137 153.147 44.2172 152.405 44.2172H145.662C145.096 44.2172 144.427 44.2172 143.963 44.1657C143.728 44.1363 143.56 44.0733 143.43 44.0247C143.333 43.9883 143.257 43.9599 143.191 43.9599C143.139 43.9599 143.087 44.0628 143.035 44.2686C142.985 44.423 142.675 45.8643 142.675 46.1738C142.675 46.3282 142.675 46.4302 142.829 46.4302C142.909 46.4302 142.958 46.3693 142.999 46.3178L142.999 46.3178L143 46.3177C143.012 46.3023 143.024 46.2877 143.035 46.2759C143.045 46.2463 143.055 46.213 143.066 46.1774C143.111 46.0268 143.169 45.8348 143.293 45.71C143.551 45.2976 143.962 45.1947 144.941 45.1947ZM133.256 44.2163C134.132 44.2163 135.108 44.3707 135.882 44.9374C136.395 45.1947 137.014 46.0693 137.014 47.2019C137.014 48.4366 136.499 49.5701 134.8 50.9584C135.304 51.5793 135.764 52.1564 136.188 52.6897C137.066 53.7923 137.795 54.7078 138.455 55.4359C139.398 56.3808 140.054 56.5089 140.331 56.5629L140.359 56.5686C140.565 56.62 140.719 56.62 140.823 56.62C140.977 56.62 141.029 56.6715 141.029 56.7743C141.029 56.8781 140.925 56.9287 140.719 56.9287H139.124C138.198 56.9287 137.734 56.8266 137.322 56.6208C136.55 56.2093 135.931 55.4359 135.006 54.1489C134.337 53.1714 133.513 52.0387 133.308 51.7807L133.256 51.7301C133.152 51.6786 133.102 51.6786 132.998 51.6786L131.505 51.6272C131.454 51.6272 131.403 51.6786 131.403 51.7815V51.9873C131.403 53.5838 131.403 54.9223 131.454 55.5919C131.505 56.1578 131.61 56.5171 132.124 56.5694C132.382 56.6208 132.741 56.6208 132.947 56.6208C133.103 56.6208 133.205 56.6723 133.205 56.7752C133.205 56.8789 133.05 56.9295 132.845 56.9295C132.218 56.9295 131.508 56.9088 130.997 56.8939C130.709 56.8855 130.484 56.8789 130.373 56.8789C130.245 56.8789 129.985 56.8876 129.681 56.8977C129.249 56.9121 128.728 56.9295 128.366 56.9295C128.108 56.9295 128.004 56.8789 128.004 56.7752C128.004 56.6731 128.056 56.6208 128.263 56.6208C128.521 56.6208 128.726 56.6208 128.88 56.5694C129.189 56.5179 129.293 56.1578 129.344 55.5919C129.447 54.9223 129.447 53.5838 129.447 51.9873V49.054V45.5033C129.396 44.9366 129.242 44.6279 128.674 44.5765C128.52 44.525 128.263 44.525 128.004 44.525C127.799 44.525 127.748 44.4736 127.748 44.3707C127.748 44.2163 127.85 44.1649 128.108 44.1649C128.642 44.1649 129.251 44.184 129.727 44.1989C130.033 44.2085 130.283 44.2163 130.424 44.2163C130.715 44.2163 131.181 44.2028 131.635 44.1897L131.636 44.1897C132.068 44.1771 132.49 44.1649 132.74 44.1649C132.897 44.1649 133.05 44.1649 133.256 44.2163ZM134.016 50.6048C133.814 50.7051 133.61 50.8067 133.256 50.8571L132.845 50.8563C132.433 50.8563 131.918 50.8049 131.558 50.6505C131.454 50.6505 131.403 50.5982 131.403 50.3925V45.2967C131.403 45.1938 131.454 45.0909 131.558 45.0909C131.712 44.988 132.073 44.988 132.433 44.988C132.69 44.988 132.947 45.0387 133.256 45.1424C134.079 45.3996 135.059 46.2228 135.059 48.0251C135.059 49.4141 134.543 50.1875 134.028 50.5991L134.016 50.6048Z" fill="#111111"/>
</svg>
