<svg xmlns="http://www.w3.org/2000/svg" viewBox="0 0 380 300" width="380" height="300" preserveAspectRatio="xMidYMid meet" style="width: 100%; height: 100%; transform: translate3d(0px, 0px, 0px); content-visibility: visible;"><defs><clipPath id="__lottie_element_53"><rect width="380" height="300" x="0" y="0"/></clipPath></defs><g clip-path="url(#__lottie_element_53)"><g transform="matrix(1.600000023841858,0,0,1.600000023841858,132.27040100097656,93.2719955444336)" opacity="1" style="display: block;"><path stroke-linecap="butt" stroke-linejoin="miter" fill-opacity="0" stroke-miterlimit="4" stroke="rgb(216,169,106)" stroke-opacity="1" stroke-width="74" d=" M37.33,0.25 C57.81,0.25 74.41,16.85 74.41,37.33 C74.41,37.33 74.41,37.33 74.41,37.33 C74.41,57.81 57.81,74.41 37.33,74.41 C16.85,74.41 0.25,57.81 0.25,37.33 C0.25,16.85 16.85,0.25 37.33,0.25 C37.33,0.25 37.33,0.25 37.33,0.25"/><g opacity="1" transform="matrix(1,0,0,1,37.33100128173828,37.33000183105469)"/></g><g transform="matrix(0,0,0,0.1920115202665329,192.24639892578125,260.9133605957031)" opacity="1" style="display: block;"><g opacity="1" transform="matrix(1,0,0,0.5539399981498718,1.3769999742507935,75.6050033569336)"><path fill="rgb(144,103,147)" fill-opacity="1" d=" M2.490625418985438e-15,-40.67499923706055 C2.490625418985438e-15,-40.67499923706055 35.225582122802734,20.337499618530273 35.225582122802734,20.337499618530273 C35.225582122802734,20.337499618530273 -35.225582122802734,20.337499618530273 -35.225582122802734,20.337499618530273 C-35.225582122802734,20.337499618530273 2.490625418985438e-15,-40.67499923706055 2.490625418985438e-15,-40.67499923706055z"/></g></g><g transform="matrix(1.600000023841858,0,0,1.600000023841858,156,93.2719955444336)" opacity="1" style="display: none;"><path stroke-linecap="round" stroke-linejoin="round" fill-opacity="0" stroke="rgb(232,84,91)" stroke-opacity="1" stroke-width="0" d=" M22.5,74.41 C22.32,74.41 22.14,74.41 21.96,74.4"/><g opacity="1" transform="matrix(1,0,0,1,37.33100128173828,37.893001556396484)"/></g><g transform="matrix(1.600000023841858,0,0,1.600000023841858,132.27040100097656,93.2719955444336)" opacity="1" style="display: block;"><path stroke-linecap="butt" stroke-linejoin="miter" fill-opacity="0" stroke-miterlimit="4" stroke="rgb(232,84,91)" stroke-opacity="1" stroke-width="74" d=" M70.91,53.08 C64.99,65.68 52.18,74.41 37.33,74.41 C16.85,74.41 0.25,57.81 0.25,37.33 C0.25,16.85 16.85,0.25 37.33,0.25 C37.33,0.25 37.33,0.25 37.33,0.25"/><g opacity="1" transform="matrix(1,0,0,1,37.33100128173828,37.33000183105469)"/></g><g transform="matrix(1.600000023841858,0,0,1.600000023841858,132.27040100097656,93.2719955444336)" opacity="1" style="display: block;"><path stroke-linecap="butt" stroke-linejoin="miter" fill-opacity="0" stroke-miterlimit="4" stroke="rgb(101,120,193)" stroke-opacity="1" stroke-width="74" d=" M53.12,70.89 C48.33,73.15 42.98,74.41 37.33,74.41 C16.85,74.41 0.25,57.81 0.25,37.33 C0.25,16.85 16.85,0.25 37.33,0.25 C37.33,0.25 37.33,0.25 37.33,0.25"/><g opacity="1" transform="matrix(1,0,0,1,37.33100128173828,37.33000183105469)"/></g></g></svg>