<svg fill="none" height="24" viewBox="0 0 24 24" width="24" xmlns="http://www.w3.org/2000/svg"><path clip-rule="evenodd" d="m2 12c0-5.52285 4.47715-10 10-10 2.6522 0 5.1957 1.05357 7.0711 2.92893 1.8753 1.87537 2.9289 4.41891 2.9289 7.07107 0 2.6522-1.0536 5.1957-2.9289 7.0711-1.8754 1.8753-4.4189 2.9289-7.0711 2.9289-2.65216 0-5.1957-1.0536-7.07107-2.9289-1.87536-1.8754-2.92893-4.4189-2.92893-7.0711zm14.86-6.09c-1.33-1.07-3.02-1.71-4.86-1.71-.57 0-1.12.07-1.66.18.66.87 1.66 2.29 2.69 4.27 1.47-.65 2.81-1.51 3.83-2.74zm-8.31-.91c.55.65 1.63 2.06 2.79 4.25-2.34.71-4.73.87-6.16.87h-.12-.01c-.24 0-.45 0-.62-.01.57-2.24 2.07-4.11 4.12-5.11zm-4.35 6.89v.11c0 1.91.7 3.66 1.84 5 .41-.61 1.12-1.54 2.15-2.5 1.08-.97 2.54-1.96 4.4-2.58-.15-.36-.3-.7-.45-1.03-2.78.87-5.52 1-7.08 1.01h-.01c-.34 0-.63 0-.85-.01zm12.22 6.53c-.42-1.92-.92-3.69-1.42-5.25.5-.07 1-.11 1.58-.11h.02c.93 0 1.95.12 3.06.37-.38 2.07-1.58 3.84-3.24 4.99zm-4.42 1.38c-1.74 0-3.34-.57-4.64-1.54.28-.45.87-1.32 1.82-2.22.96-.93 2.32-1.89 4.05-2.46.59 1.67 1.13 3.57 1.54 5.71-.86.33-1.77.51-2.77.51zm6.13-12.62c.97 1.24 1.58 2.78 1.66 4.45-1.13-.24-2.19-.35-3.19-.35h-.01c-.8 0-1.55.07-2.26.19l-.027-.0667c-.1601-.3957-.3131-.774-.493-1.1433 1.58-.69 3.09-1.68 4.32-3.08z" fill="currentColor" fill-rule="evenodd"/></svg>