<svg width="200" height="100" viewBox="0 0 200 100" fill="none" xmlns="http://www.w3.org/2000/svg">
<path d="M63.8106 32.0838C57.0329 39.9666 50.5344 49.7419 50.4693 57.0487C50.4439 59.7979 51.3301 62.1979 53.4558 64.0158C56.5151 66.6339 59.8857 67.557 63.2399 67.5625C68.1416 67.5693 73.009 65.6108 76.82 64.1007C83.2382 61.5587 154.186 31.0458 154.186 31.0458C154.871 30.7061 154.742 30.2829 153.886 30.4942C153.54 30.5798 76.6478 51.2167 76.6478 51.2167C75.1913 51.6247 73.6864 51.8381 72.1728 51.8512C66.2635 51.8859 61.0052 48.6374 61.0477 41.7919C61.0642 39.1133 61.8921 35.8832 63.8106 32.0838Z" fill="#111111"/>
</svg>
