<svg width="200" height="100" viewBox="0 0 200 100" fill="none" xmlns="http://www.w3.org/2000/svg">
<path fill-rule="evenodd" clip-rule="evenodd" d="M49.5903 41.1557H50.1102C53.4696 41.1557 55.0354 42.9059 55.6897 47.5733L56.73 47.5285L56.5912 40.1233H39.4965L39.328 47.5285L40.329 47.5733C40.5024 45.8231 40.7104 44.8806 41.1616 43.938C41.9594 42.1876 43.6242 41.1557 45.6705 41.1557H46.3988V57.2671C46.3988 58.9725 46.2948 59.5111 45.8789 59.9151C45.5319 60.2292 44.8381 60.3638 44.0401 60.3638H43.2424V61.4408H52.7464V60.3638H51.9438C51.151 60.3638 50.4523 60.2289 50.1104 59.9151C49.6943 59.5111 49.5903 58.9723 49.5903 57.2671V41.1557ZM39.0615 49.8521H43.4454V54.2089H39.0615V49.8521ZM56.8565 49.8521H52.4726V54.2089H56.8565V49.8521ZM65.4175 49.8521H69.8063V54.2089H65.4175V49.8521ZM82.9556 49.8521H78.5714V54.2089H82.9556V49.8521ZM94.8101 61.441L100.349 42.6202V57.3896C100.349 59.0014 100.255 59.5678 99.8791 59.9599C99.5971 60.2647 98.9436 60.3956 98.2191 60.3956H97.9374V61.441H105.766V60.3956H105.359C104.639 60.3956 103.981 60.265 103.7 59.9599C103.323 59.5678 103.23 59.0014 103.23 57.3896V44.7987C103.23 43.1866 103.323 42.5767 103.7 42.1847C104.013 41.9233 104.639 41.7489 105.359 41.7489H105.766V40.7467H99.6913L95.119 55.9516L90.6453 40.7467H84.6014V41.7489H85.1648C86.8248 41.7489 87.1378 42.0975 87.1378 44.1888V56.1695C87.1378 58.0864 87.0439 58.8707 86.7619 59.4372C86.4489 60.0036 85.7867 60.3956 85.1022 60.3956H84.6011V61.441H91.0519V60.3956H90.645C89.831 60.3956 89.1731 60.0905 88.7929 59.4806C88.4217 58.8707 88.3278 58.3043 88.3278 56.1695V42.6204L93.8347 61.4413H94.8101V61.441ZM106.079 54.3398C106.079 49.6779 108.616 46.7153 112.499 46.7153C116.221 46.7153 118.758 49.8086 118.758 54.2963C118.758 58.8273 116.221 61.8771 112.401 61.8771C108.616 61.8771 106.079 58.8273 106.079 54.3398ZM115 49.5907C114.467 48.4144 113.497 47.7173 112.374 47.7173C111.34 47.7173 110.334 48.4581 109.837 49.5907C109.336 50.6798 109.112 52.161 109.112 54.2523C109.112 58.6958 110.182 60.8743 112.401 60.8743C114.624 60.8743 115.72 58.6961 115.72 54.2961C115.72 52.1613 115.501 50.6798 115 49.5907ZM123.961 40.5288L119.513 40.7467V41.7052H119.728C121.044 41.7052 121.33 42.1409 121.33 44.1885V58.3478C121.33 60.1775 121.267 60.657 121.017 61.441H122.05C122.829 60.1775 123.021 59.9599 123.334 59.9599C123.486 59.9599 123.638 60.0033 123.862 60.2212C125.401 61.441 126.058 61.7024 127.468 61.7024C130.845 61.7024 133.288 58.5219 133.288 53.991C133.288 49.7214 131.029 46.846 127.651 46.846C125.898 46.846 124.618 47.6738 123.961 49.155V40.5288ZM127.208 47.9351C129.217 47.9351 130.25 50.0265 130.25 54.1217C130.25 58.4347 129.186 60.6567 127.15 60.6567C124.895 60.6567 123.71 58.391 123.71 54.2523C123.71 52.161 123.992 50.7236 124.649 49.6342C125.24 48.5888 126.246 47.9351 127.208 47.9351ZM134.514 47.1946L139.081 46.9332H139.082V57.9557C139.082 60.0033 139.368 60.4394 140.688 60.4394H141.18V61.441H134.362V60.4394H134.858C136.169 60.4394 136.451 59.9601 136.451 57.9557V50.5929C136.451 48.5888 136.169 48.153 134.858 48.153H134.514V47.1946ZM135.829 42.3151C135.829 41.3129 136.612 40.5723 137.583 40.5723C138.522 40.5723 139.274 41.3566 139.274 42.3151C139.274 43.2735 138.522 44.0141 137.552 44.0141C136.612 44.0141 135.829 43.2301 135.829 42.3151ZM147.004 40.5288L142.436 40.7467V41.7052H142.777C144.092 41.7052 144.374 42.1409 144.374 44.1885V57.9555C144.374 60.0033 144.092 60.4391 142.777 60.4391H142.28V61.4408H149.102V60.4391H148.601C147.281 60.4391 147.004 60.0031 147.004 57.9555V40.5288ZM155.746 46.7153C159.155 46.7153 161.409 49.5907 161.562 54.2089H152.99C153.022 58.7401 154.082 60.6567 156.556 60.6567C158.247 60.6567 159.343 59.7417 160.439 57.4763L161.378 57.9555C160.031 60.6567 158.403 61.8768 156.054 61.8768C152.422 61.8768 150.078 58.8705 150.078 54.2089C150.078 49.8521 152.453 46.7153 155.746 46.7153ZM155.898 47.8045C154.139 47.8045 153.048 49.8521 153.021 53.1195H158.653C158.684 49.8086 157.651 47.8045 155.898 47.8045Z" fill="#111111"/>
</svg>
