<svg fill="none" height="24" viewBox="0 0 24 24" width="24" xmlns="http://www.w3.org/2000/svg"><path clip-rule="evenodd" d="m7.8 2h8.4c3.2 0 5.8 2.6 5.8 5.8v8.4c0 3.2033-2.5967 5.8-5.8 5.8h-8.4c-3.2 0-5.8-2.6-5.8-5.8v-8.4c0-3.20325 2.59675-5.8 5.8-5.8zm-.2 2c-1.98823 0-3.6 1.61177-3.6 3.6v8.8c0 1.99 1.61 3.6 3.6 3.6h8.8c1.9882 0 3.6-1.6118 3.6-3.6v-8.8c0-1.99-1.61-3.6-3.6-3.6zm10.9 2.75c0-.69036-.5596-1.25-1.25-1.25s-1.25.55964-1.25 1.25.5596 1.25 1.25 1.25 1.25-.55964 1.25-1.25zm-6.5.25c2.7614 0 5 2.23858 5 5 0 2.7614-2.2386 5-5 5-2.76142 0-5-2.2386-5-5 0-2.76142 2.23858-5 5-5zm-3 5c0-1.6569 1.3431-3 3-3s3 1.3431 3 3-1.3431 3-3 3-3-1.3431-3-3z" fill="currentColor" fill-rule="evenodd"/></svg>