<svg width="200" height="100" viewBox="0 0 200 100" fill="none" xmlns="http://www.w3.org/2000/svg">
<path fill-rule="evenodd" clip-rule="evenodd" d="M44.3434 38.1798C47.9737 38.1798 50.9167 35.2764 50.9167 31.6949C50.9167 28.1134 47.9737 25.21 44.3434 25.21C40.713 25.21 37.77 28.1134 37.77 31.6949C37.77 35.2764 40.713 38.1798 44.3434 38.1798ZM164.306 42.6885C164.813 41.8102 164.522 40.6927 163.655 40.1925C162.789 39.6922 161.675 39.9986 161.168 40.8769C160.661 41.7552 160.952 42.8727 161.819 43.3729C162.685 43.8732 163.799 43.5668 164.306 42.6885ZM148.745 43.4307C148.399 43.0894 147.787 42.748 147.042 42.748C146.057 42.748 145.365 43.3256 145.365 44.7959V46.0036H148.319L147.521 48.0777H145.365V57.7656H142.518V48.0777H139.564L133.948 62.7277H131.154L133.123 57.7919L128.44 46.0036H131.367C131.367 46.0036 134.028 53.1711 134.507 54.5888H134.534C134.96 53.1711 137.621 46.0036 137.621 46.0036H142.491V44.8222C142.491 41.5403 144.7 40.4376 146.749 40.4376C147.814 40.4376 148.931 40.6739 149.623 41.094L148.745 43.4307ZM61.2159 48.9179C60.4441 47.08 59.0336 45.6623 56.2659 45.6623C52.5933 45.6623 50.3046 48.1565 50.3312 51.8584C50.3312 55.5865 52.6199 58.0544 56.2127 58.0544C58.9005 58.0544 60.311 56.6629 61.2691 54.9301L58.6344 53.9325C58.2086 55.0089 57.5699 55.8228 56.1594 55.8228C54.0836 55.8228 53.2586 53.9062 53.2586 51.8584C53.2586 49.7843 54.1369 47.8677 56.1328 47.8677C57.4901 47.8677 58.3151 48.6291 58.6344 49.8893L61.2159 48.9179ZM70.5037 57.7394H73.2182V46.0036H70.3706V52.2259C70.3706 54.5626 69.04 55.7703 67.6561 55.7703C66.565 55.7703 65.5005 55.1139 65.5005 53.4336V45.9774H62.6529V54.1163C62.6529 56.7417 64.5424 58.0544 66.8045 58.0544C68.6408 58.0544 69.7851 57.188 70.5037 55.9803V57.7394ZM97.7551 58.0807C100.257 58.0807 101.907 56.9255 102.838 55.1664L100.363 54.2213C99.8841 55.2452 99.1922 55.9803 97.7285 55.9803C95.5995 55.9803 94.8277 54.3 94.7479 52.541H103.264V51.7533C103.264 48.5503 101.481 45.6886 97.6487 45.6886C94.1624 45.6886 91.8471 48.1565 91.8471 51.8584C91.8471 55.5865 94.1092 58.0807 97.7551 58.0807ZM100.39 50.6507H94.8011C94.9608 48.9441 95.9454 47.7101 97.622 47.7101C99.2188 47.7101 100.31 48.7866 100.39 50.6507ZM107.735 45.9774H104.994V57.7131H107.868V51.4908C107.868 49.1541 109.199 47.9464 110.636 47.9464C111.727 47.9464 112.845 48.6028 112.845 50.2831V57.7394H115.719V49.6267C115.719 46.975 113.803 45.6623 111.487 45.6623C109.624 45.6623 108.427 46.555 107.735 47.7627V45.9774ZM123.223 45.6623C125.991 45.6623 127.402 47.08 128.173 48.9179L125.592 49.8893C125.273 48.6291 124.448 47.8677 123.09 47.8677C121.094 47.8677 120.216 49.7843 120.216 51.8584C120.216 53.9062 121.041 55.8228 123.117 55.8228C124.527 55.8228 125.166 55.0089 125.592 53.9325L128.227 54.9301C127.269 56.6629 125.858 58.0544 123.17 58.0544C119.578 58.0544 117.289 55.5865 117.289 51.8584C117.262 48.1565 119.524 45.6623 123.223 45.6623ZM152.577 58.0544C154.467 58.0544 155.611 57.3193 156.383 56.2166C156.383 56.873 156.516 57.5293 156.622 57.7394H159.39C159.257 57.293 159.124 56.8467 159.124 56.1379V49.9418C159.124 47.1063 157.128 45.6623 154.254 45.6623C151.619 45.6623 149.357 46.8963 149.118 49.2067L151.885 49.6005C151.912 48.6028 152.631 47.7627 154.147 47.7627C155.638 47.7627 156.33 48.6291 156.33 49.863V50.5981C152.258 50.5981 148.585 51.5433 148.585 54.6939C148.585 56.768 150.182 58.0544 152.577 58.0544ZM156.33 52.436V53.4074C156.33 55.0352 154.866 55.9803 153.376 55.9803C152.231 55.9803 151.406 55.4815 151.406 54.5363C151.406 52.9873 153.376 52.436 156.33 52.436ZM164.18 45.9774H161.306V57.7394H164.18V45.9774ZM173.149 48.314C172.83 48.1565 172.457 48.0777 172.111 48.0777C170.727 48.0777 169.21 49.2592 169.21 51.8059V57.7394H166.336V45.9774H169.024V47.8939C169.689 46.3974 170.913 45.6623 172.537 45.6623C173.016 45.6623 173.575 45.7411 174.054 45.9248L173.149 48.314ZM81.1754 48.0777C81.5214 48.0777 81.8939 48.1565 82.2133 48.314L83.1181 45.9248C82.6391 45.7411 82.0802 45.6623 81.6012 45.6623C79.9778 45.6623 78.7536 46.3974 78.0883 47.8939V45.9774H75.4004V57.7394H78.2746V51.8059C78.2746 49.2592 79.7915 48.0777 81.1754 48.0777ZM91.0221 48.314C90.7027 48.1565 90.3302 48.0777 89.9842 48.0777C88.6003 48.0777 87.0834 49.2592 87.0834 51.8059V57.7394H84.2092V45.9774H86.8971V47.8939C87.5624 46.3974 88.7866 45.6623 90.41 45.6623C90.889 45.6623 91.4479 45.7411 91.9269 45.9248L91.0221 48.314ZM40.7241 64.0142C40.7241 68.7847 36.804 72.6519 31.9685 72.6519C27.1329 72.6519 23.2129 68.7847 23.2129 64.0142C23.2129 59.2437 27.1329 55.3765 31.9685 55.3765C36.804 55.3765 40.7241 59.2437 40.7241 64.0142ZM41.7886 49.863C41.7886 52.2555 39.8226 54.195 37.3975 54.195C34.9723 54.195 33.0064 52.2555 33.0064 49.863C33.0064 47.4705 34.9723 45.531 37.3975 45.531C39.8226 45.531 41.7886 47.4705 41.7886 49.863ZM40.4845 43.9295C41.6898 43.9295 42.6668 42.9656 42.6668 41.7766C42.6668 40.5876 41.6898 39.6238 40.4845 39.6238C39.2793 39.6238 38.3023 40.5876 38.3023 41.7766C38.3023 42.9656 39.2793 43.9295 40.4845 43.9295Z" fill="#111111"/>
</svg>
