<svg fill="none" height="24" viewBox="0 0 24 24" width="24" xmlns="http://www.w3.org/2000/svg"><g fill="currentColor"><path d="m16.1211 15.6956c-.9966.8807-2.2856 1.3587-3.6155 1.3408-3.06476 0-5.31546-2.2507-5.31546-5.3394 0-3.08876 2.17887-5.24369 5.31546-5.24369 1.3329-.01802 2.6267.45013 3.6395 1.31691l.6704.57464 2.969-2.96901-.7422-.69437c-1.7959-1.60444-4.1287-2.47606-6.5367-2.44225-5.50701 0-9.5056 3.97465-9.5056 9.43377 0 5.4592 4.09437 9.5536 9.5056 9.5536 2.4308.0325 4.7836-.8573 6.5845-2.4902l.7184-.6704-3.017-2.969z"/><circle cx="12.3618" cy="11.7211" r="3.18451"/></g></svg>