<svg fill="none" height="24" viewBox="0 0 24 24" width="24" xmlns="http://www.w3.org/2000/svg"><path clip-rule="evenodd" d="m21 5c0-1.10457-.8954-2-2-2h-14c-1.10457 0-2 .89543-2 2v14c0 1.1046.89543 2 2 2h14c1.1046 0 2-.8954 2-2zm-2.5 8.2v5.3h-2.79v-4.93c0-.7732-.6268-1.4-1.4-1.4-.77 0-1.39.63-1.39 1.4v4.93h-2.79v-8.37h2.79v1.11c.48-.78 1.47-1.3 2.32-1.3 1.8004 0 3.26 1.4596 3.26 3.26zm-11.62-4.64c.92784 0 1.68-.75216 1.68-1.68 0-.93-.75-1.69-1.68-1.69-.93336 0-1.69.75664-1.69 1.69 0 .93.76 1.68 1.69 1.68zm1.39 1.57v8.37h-2.77v-8.37z" fill="currentColor" fill-rule="evenodd"/></svg>