<svg width="200" height="100" viewBox="0 0 200 100" fill="none" xmlns="http://www.w3.org/2000/svg">
<g clip-path="url(#clip0_3550_3732)">
<path d="M123.16 34.7208C123.16 34.7208 121.042 35.5641 118.578 38.2794C116.114 40.9947 114.679 44.0481 115.741 44.8601C116.149 45.1687 117.09 45.2275 118.797 43.6843C120.372 42.3168 121.608 40.6025 122.408 38.6762C123.511 35.9884 123.16 34.7539 123.16 34.7245V34.7208ZM136.643 39.6058C133.905 38.2022 131.905 36.4826 129.823 35.4189C127.837 34.3993 126.553 33.9731 124.947 34.188C124.723 34.228 124.502 34.2832 124.286 34.3534C124.286 34.3534 125.113 37.1771 121.822 41.9206C118.49 46.7303 115.466 46.6972 114.606 45.3763C113.706 43.9819 114.869 41.1398 116.811 38.6101C118.844 35.9646 122.416 33.771 122.416 33.771C122.416 33.771 121.277 33.0747 118.481 34.6602C115.752 36.1997 111.057 39.874 106.699 46.0708C102.341 52.2675 101.478 55.6773 100.853 58.3613C100.228 61.0454 100.796 63.9206 103.772 63.9206C106.748 63.9206 110.213 59.381 111.191 57.8029C113.008 54.8634 114.193 50.355 111.72 50.9741C110.502 51.2791 109.515 52.6276 108.892 53.9264C108.499 54.7607 108.199 55.6355 107.996 56.5352C107.132 56.8913 106.32 57.3635 105.584 57.9388C104.764 58.5458 103.998 59.2219 103.295 59.9597C103.295 59.9597 103.306 57.8139 105.016 54.3416C106.726 50.8694 109.866 49.284 111.645 49.1351C113.247 49.0065 115.332 50.366 113.564 55.3815C111.797 60.3969 106.583 66.4944 101.107 66.5698C96.0526 66.6396 92.7457 60.1893 99.7801 48.9331C107.566 36.4973 116.699 32.6816 119.664 32.2572C122.629 31.8328 123.593 33.1409 123.593 33.1409C125.378 32.4086 127.306 32.0907 129.232 32.2112C132.853 32.4556 135.652 35.0184 139.349 36.8188C138.388 37.7374 137.471 38.7019 136.645 39.6058H136.643ZM152.911 35.4189C150.401 37.0283 146.929 38.487 143.593 38.1747C142.748 39.0473 141.844 40.0577 140.938 41.16C146.723 42.3046 151.792 38.7203 154.487 35.6688C155.47 34.5716 156.314 33.358 157 32.0551C155.773 33.3331 154.4 34.4622 152.909 35.4189H152.911ZM145.206 51.7182C145.25 51.6419 145.285 51.5612 145.312 51.4775C145.295 51.345 145.233 51.2224 145.136 51.1302C145.04 51.0379 144.914 50.9815 144.781 50.9705C144.23 50.9447 143.479 51.0495 141.508 53.232C139.872 55.0344 138.465 57.031 137.317 59.177C136.189 61.2383 135.731 62.7742 136.38 63.171C136.591 63.2802 136.835 63.3051 137.063 63.2408C137.503 63.1361 138 62.7246 138.757 61.8483C139.112 61.4367 139.505 60.8544 139.975 60.2095C141.28 58.4348 144.557 52.848 145.206 51.7182V51.7182ZM124.729 54.0918C125.058 53.232 125.476 51.5437 124.606 50.8804C123.671 50.1768 121.286 51.8284 121.273 53.5223C121.257 55.2565 122.952 56.041 123.358 56.1512C123.59 56.2137 123.671 56.2045 123.783 56.019C124.142 55.3993 124.458 54.7553 124.729 54.0918V54.0918ZM122.925 57.2462C122.334 56.9733 121.782 56.6217 121.286 56.2008C120.788 55.7832 120.372 55.2767 120.059 54.7072C120.026 54.6521 119.993 54.6944 119.956 54.744C119.919 54.7936 119.772 54.9277 118.501 56.7906C117.229 58.6535 115.277 62.5133 117.044 63.171C118.176 63.5917 120.059 61.6094 121.086 60.2959C121.785 59.379 122.42 58.4139 122.983 57.4079C123.037 57.2958 122.983 57.2701 122.926 57.2462H122.925ZM142.974 61.705C142.494 62.4729 141.947 63.9463 143.525 63.0296C145.456 61.9144 148.206 57.7422 148.206 57.7422H149.453C148.318 59.4875 147.054 61.1455 145.672 62.7025C143.716 64.8704 141.329 66.8398 139.648 66.6451C137.684 66.4154 138.3 63.8379 138.3 63.8379C138.3 63.8379 135.491 66.8288 133.547 66.6139C130.922 66.3236 131.723 63.0792 131.723 63.0792C131.723 63.0792 128.754 66.7222 126.731 66.6102C123.56 66.4265 124.358 62.5684 125.239 59.8513C125.712 58.3981 126.149 57.2572 126.149 57.2572C126.149 57.2572 125.835 57.3399 125.159 57.4409C124.806 57.4905 124.163 57.5273 124.163 57.5273C124.163 57.5273 122.842 59.8568 121.786 61.2567C120.729 62.6566 116.239 67.4828 113.597 66.5165C111.154 65.6236 111.962 61.8832 113.384 58.9107C115.46 54.5768 121.299 48.3507 124.666 49.1737C128.157 50.0207 124.745 56.3901 124.745 56.3901C124.745 56.3901 124.745 56.414 124.782 56.4305C124.852 56.4562 125.034 56.4764 125.454 56.3938C125.89 56.3048 126.318 56.1776 126.731 56.0135C126.731 56.0135 130.24 48.6648 134.117 43.857C137.993 39.0491 145.726 30.7691 148.761 32.7716C149.495 33.2639 149.165 34.9596 148.165 37.0173C147.715 37.1635 147.258 37.2861 146.795 37.3847C147.464 36.1703 147.906 35.147 148.039 34.4324C148.496 31.9485 142.696 37.1881 138.552 42.8172C136.055 46.2107 133.837 49.8005 131.919 53.5517C132.668 53.095 133.383 52.5848 134.058 52.025C135.907 50.4921 137.663 48.8517 139.319 47.1124C140.914 45.4799 142.41 43.7536 143.798 41.9427C144.24 41.9213 144.679 41.8759 145.116 41.8067C143.602 43.8618 141.95 45.8124 140.174 47.6452C138.52 49.317 136.731 51.1156 135.177 52.4218C133.788 53.6024 132.324 54.6905 130.793 55.6791C130.793 55.6791 127.168 62.9891 129.14 63.4576C130.299 63.7369 132.588 60.2114 132.588 60.2114C132.588 60.2114 135.575 55.6534 137.376 53.5976C139.832 50.8051 141.947 49.1884 144.059 49.159C145.29 49.137 146.016 50.445 146.016 50.445L146.595 49.5485H150.159C150.159 49.5485 143.503 60.8433 142.97 61.694L142.974 61.705ZM152.909 35.4189C150.399 37.0283 146.927 38.487 143.591 38.1747C142.746 39.0473 141.842 40.0577 140.936 41.16C146.721 42.3046 151.79 38.7203 154.485 35.6688C155.468 34.5717 156.313 33.3581 157 32.0551C155.773 33.3331 154.4 34.4622 152.909 35.4189V35.4189ZM102.856 40.9598H99.466L97.5498 44.0554H100.939L102.856 40.9598ZM86.8061 51.6796C88.2483 49.7028 92.2276 42.7749 92.2276 42.7749C92.2108 42.6426 92.1491 42.52 92.0528 42.4277C91.9565 42.3354 91.8314 42.279 91.6985 42.2678C91.1473 42.2421 90.2288 42.4277 88.4045 44.7113C86.5802 46.9949 85.1637 48.8118 84.1312 50.7022C82.9996 52.7654 82.5054 54.2204 83.1557 54.6154C83.3668 54.7211 83.6092 54.746 83.8373 54.6852C84.2598 54.5786 84.8128 54.1543 85.5716 53.2816C85.928 52.8738 86.3322 52.3244 86.8061 51.6796ZM68.6183 42.3101C67.6813 41.6028 65.2985 43.2581 65.2857 44.9483C65.271 46.6844 67.4296 47.2153 67.7089 47.2282C67.791 47.235 67.8734 47.2178 67.9459 47.1786C67.9957 47.1495 68.0354 47.1059 68.0598 47.0536C68.3136 46.5549 68.5417 46.0435 68.7432 45.5215C69.0721 44.6617 69.4891 42.9733 68.6183 42.3101V42.3101ZM67.2055 48.2864C66.5594 48.0845 65.942 47.8005 65.3683 47.4413C64.8124 47.0789 64.3604 46.5781 64.0566 45.9881C64.0235 45.933 63.9868 45.9752 63.9537 46.0248C63.9207 46.0744 63.7296 46.3133 62.4546 48.1835C61.1796 50.0537 59.291 53.8787 61.0602 54.5364C62.1882 54.9644 64.0934 52.9656 65.1277 51.6576C65.9017 50.6296 66.6169 49.5587 67.2698 48.4499C67.3121 48.3378 67.2698 48.3121 67.2073 48.2919L67.2055 48.2864ZM94.8896 49.4383H96.1316C96.1316 49.4383 89.9091 58.4403 86.3946 58.0215C84.4325 57.7918 85.0149 55.3705 85.0149 55.3705C85.0149 55.3705 82.2592 58.5965 79.7276 57.9425C77.4311 57.3527 78.9137 53.5333 78.9137 53.5333C78.6528 53.638 73.6833 59.2395 70.1909 57.8965C66.5368 56.4856 68.4346 51.7953 69.129 50.3844C69.7187 49.1958 70.3709 48.0384 70.3709 48.0384C70.3709 48.0384 69.8106 48.1964 69.4524 48.2772C69.0941 48.358 68.576 48.4609 68.576 48.4609C68.576 48.4609 66.8473 51.2699 65.7909 52.6717C64.7345 54.0734 60.2445 58.8904 57.599 57.9315C54.9535 56.9725 55.6094 53.2706 57.0956 50.3311C59.506 45.5637 65.2251 39.705 68.6697 40.5942C72.1493 41.4815 69.2686 47.1253 69.2686 47.1253C69.2686 47.1253 69.9612 47.2153 71.6202 46.0836C74.0085 44.4541 77.1611 40.0706 80.5745 40.585C82.1839 40.8275 83.683 42.4718 81.6327 45.5949C80.9787 46.598 79.8819 47.4946 79.0423 46.6072C78.5187 46.0561 78.9762 45.0511 79.5255 44.364C79.7393 44.084 80.0187 43.8607 80.339 43.714C80.6594 43.5673 81.0109 43.5016 81.3626 43.5226C81.3626 43.5226 81.9267 42.2366 80.4918 42.255C79.3307 42.277 76.3913 44.9832 74.7323 47.7169C73.2112 50.2264 70.9055 54.5015 73.2204 55.4329C75.3423 56.289 79.3804 51.4959 81.2506 48.9845C83.1208 46.4731 87.383 40.7816 90.9581 40.5538C92.189 40.4729 92.922 41.5954 92.922 41.5954L93.3354 40.9414H96.9105C96.9105 40.9414 90.1773 52.1775 89.6519 53.0281C89.2385 53.6931 88.6892 55.1886 90.203 54.3508C91.7169 53.5131 94.8896 49.4383 94.8896 49.4383ZM92.9441 67.4424C90.3117 65.6202 87.1596 64.7004 83.9604 64.8208C83.0945 64.8444 82.2463 65.0718 81.4847 65.4845C80.7231 65.8972 80.0695 66.4837 79.5769 67.1962C78.2138 64.8171 75.5186 63.3566 71.352 63.3896C64.6188 63.4668 57.9407 66.5716 52.6497 66.5679C47.5792 66.5679 43.881 63.3805 44.0004 57.7202C44.2227 47.7867 52.6166 38.8415 58.8813 34.8163C62.4932 32.5034 65.5135 31.8163 67.4884 32.0386C68.9288 32.1984 70.6612 33.8629 69.5681 36.3155C67.9624 39.8998 65.745 39.6058 65.8276 37.8917C65.8736 36.7766 66.6158 36.0748 67.1743 35.6872C67.5288 35.4428 68.1553 35.373 68.4823 35.3656C68.8002 35.0974 69.0335 33.1353 66.4615 33.7802C63.8894 34.425 60.7663 36.9603 57.8011 40.236C54.8359 43.5116 50.2191 49.7028 49.0783 56.2045C48.5455 59.2193 48.8946 64.7179 56.0429 64.6554C62.1056 64.6058 71.0415 60.6137 79.2536 60.6964C82.4411 60.7276 85.2152 61.5874 87.3775 62.9212C89.5013 64.2292 92.0476 66.1399 92.9514 67.4443" fill="#111111"/>
</g>
<defs>
<clipPath id="clip0_3550_3732">
<rect width="113" height="35.4461" fill="white" transform="translate(44 32)"/>
</clipPath>
</defs>
</svg>
