<svg width="200" height="100" viewBox="0 0 200 100" fill="none" xmlns="http://www.w3.org/2000/svg">
<path fill-rule="evenodd" clip-rule="evenodd" d="M72.1062 40.9454C75.8355 29.5595 84.6639 20.7664 99.418 20.7664C113.128 20.7664 123.202 29.6802 126.857 41.1936C123.504 31.7574 114.722 24.6338 103.968 23.0519C104.093 23.0957 104.217 23.1414 104.341 23.1893C100.267 22.664 97.6111 24.8478 97.2987 25.4602C97.4664 25.7179 98.0947 25.8217 98.7247 25.9259C99.3788 26.0339 100.035 26.1423 100.179 26.4236C100.722 27.4808 101.451 27.3892 101.417 26.9019C101.331 25.6841 101.878 25.8448 102.087 25.9063C102.2 25.9396 102.214 25.9437 101.974 25.6837C101.912 25.6168 101.814 25.5724 101.71 25.5258C101.41 25.3904 101.068 25.2364 101.46 24.4566C101.761 24.713 101.944 24.6932 102.152 24.6707C102.404 24.6433 102.694 24.612 103.276 25.0668C103.904 25.5563 104.209 25.7664 104.694 25.2412C105.027 25.3589 105.466 25.6615 105.958 26.0009C106.513 26.3832 107.135 26.8122 107.751 27.0762C107.424 27.7443 106.659 27.5675 106.009 27.4172C105.508 27.3014 105.074 27.2013 104.961 27.5143C104.775 28.0233 105.325 28.2899 105.846 28.5425L105.846 28.5426L105.847 28.5426C105.952 28.5939 106.057 28.6447 106.154 28.6967C105.403 29.3941 104.431 29.1147 104.431 29.1147C104.431 29.1147 104.628 29.9685 103.718 30.277C103.435 30.3711 103.253 30.774 102.985 31.3643C102.878 31.6009 102.757 31.8677 102.611 32.1568C102.293 32.7808 101.738 33.11 101.007 33.5435C100.91 33.6007 100.811 33.6597 100.709 33.7214C100.068 34.1078 100.296 34.6149 100.575 35.2354C100.83 35.803 101.128 36.4654 100.842 37.2172C100.167 36.9423 99.9897 36.285 99.84 35.7286C99.6695 35.0953 99.5343 34.5926 98.7387 34.9328C98.2471 35.1426 97.9105 35.0606 97.583 34.9807C97.1531 34.8759 96.7389 34.7749 96.0103 35.3419C94.8668 34.9016 93.5513 35.2726 93.0599 36.113C92.3897 37.2552 91.9481 38.4286 92.5391 39.3719C92.5391 39.3719 93.2048 40.6191 93.4267 40.6191C93.6486 40.6191 94.7174 40.5454 95.1612 40.4001C95.5431 40.275 95.7322 39.8785 95.8727 39.5837C95.8955 39.536 95.917 39.4909 95.9378 39.4501C95.9583 39.4097 95.9795 39.3643 96.0017 39.3168L96.0018 39.3166L96.0018 39.3165C96.139 39.0231 96.312 38.6528 96.5673 38.9047C96.7145 39.05 97.0377 39.05 97.2825 39.05C97.5274 39.05 97.6938 39.05 97.5274 39.1953C97.1945 39.4881 96.7869 41.2025 96.7869 41.2025H91.0605C90.7987 41.2025 90.5477 40.982 90.2752 40.7428C90.1943 40.6716 90.1114 40.5989 90.0258 40.5297C89.6544 40.2302 89.077 40.2637 89.077 40.2637L89.2763 39.801C88.4974 39.801 89.2401 39.0545 89.2401 39.0545C89.2401 39.0545 87.2497 36.037 87.2882 34.4724C87.2969 34.0923 87.1523 34.2198 87.0351 34.3232C86.9676 34.3827 86.9091 34.4343 86.8943 34.3763C86.8124 34.9633 86.9964 35.5316 87.18 36.0992C87.3929 36.757 87.6055 37.4139 87.4037 38.0978C87.2783 38.5234 87.1015 37.9839 86.913 37.4088C86.8054 37.0806 86.6941 36.7409 86.5863 36.5623C86.3788 36.2209 86.2641 36.1609 86.2079 36.1316C86.1921 36.1233 86.1809 36.1175 86.1736 36.1085C86.1559 36.0868 86.1608 36.0466 86.1775 35.9091C86.1896 35.8091 86.208 35.6577 86.2285 35.4246C86.3689 33.9091 85.6398 32.5926 85.6398 32.5926C85.6398 32.5926 85.9659 30.7464 87.0686 29.5282C88.4068 28.0485 87.9788 27.7669 87.9788 27.7669C87.9788 27.7669 88.7283 25.6882 89.4189 25.4602C89.59 25.4046 89.6371 25.2687 89.6982 25.0926C89.7795 24.8584 89.8855 24.5531 90.3405 24.2711C90.3469 24.2023 90.4027 24.1233 90.5029 24.0372C81.8811 26.6532 75.0391 32.9525 72.1062 40.9454ZM126.796 58.3619C123.084 69.7769 112.646 78.6572 99.418 78.6572C85.3862 78.6572 75.9577 69.8976 72.1651 58.61C76.1117 69.1242 86.8286 76.6657 99.4384 76.6657C112.141 76.6657 122.93 69.0057 126.796 58.3619ZM100.045 38.3549C100.174 38.1643 100.493 38.2052 100.802 38.2449C100.917 38.2597 101.03 38.2742 101.132 38.2767C101.355 38.2816 101.456 38.4277 101.559 38.577C101.69 38.7665 101.825 38.9614 102.217 38.8802C102.551 38.8094 102.727 38.957 102.93 39.1266C103.15 39.3108 103.401 39.5211 103.919 39.506C104.92 39.4747 103.72 39.8502 103.72 39.8502C103.72 39.8502 103.102 39.5552 102.704 39.7541C102.613 39.7987 102.613 39.7946 102.616 39.753C102.62 39.6968 102.629 39.5722 102.425 39.4077C102.189 39.2172 102.069 39.206 101.935 39.1935C101.757 39.1771 101.556 39.1584 101.032 38.7192C100.661 38.4087 100.299 38.4728 100.109 38.5064C99.9653 38.5318 99.9204 38.5397 100.045 38.3549ZM103.258 56.9962H119.405C119.405 56.9962 119.147 57.4365 119.369 57.7271C119.588 58.0177 118.97 58.5452 118.97 58.5452L118.678 58.99C118.537 59.2693 118.485 59.4423 118.438 59.6014C118.348 59.9032 118.274 60.1547 117.627 60.986C117.429 61.2389 117.297 61.2211 117.088 61.193C116.84 61.1596 116.485 61.1118 115.784 61.4799C115.162 61.8085 115.021 62.0741 114.801 62.4902C114.587 62.8921 114.299 63.4344 113.432 64.3097C112.056 65.6955 111.218 65.9919 110.793 66.1422C110.525 66.237 110.421 66.2737 110.45 66.4889C110.524 67.0433 110.398 67.2221 109.8 67.3472C108.632 67.5962 108.175 67.8938 107.855 68.102C107.555 68.2976 107.376 68.4143 106.843 68.3374C106.22 69.9847 105.117 70.0697 105.117 70.0697C105.117 70.0697 105.654 70.586 104.997 70.8609C103.861 71.3325 104.178 71.5566 104.382 71.7005C104.484 71.7728 104.558 71.8249 104.404 71.8779C103.793 72.088 103.086 71.2476 103.211 70.7045C103.589 69.0236 103.849 68.8783 103.849 68.8783C103.849 68.8783 103.249 68.2435 104.021 67.4769C105.237 66.0531 105.357 63.7352 105.357 63.7352C105.357 63.7352 105.917 64.0526 105.917 62.0924C105.917 61.0153 106.121 60.7737 106.254 60.6166C106.384 60.4626 106.446 60.3898 106.179 59.6918C105.95 59.095 105.452 58.7039 105.058 58.5474L103.258 56.9962ZM108.01 40.7535L107.711 40.932L107.651 40.6352L108.01 40.7535ZM106.25 40.5051C106.432 40.4906 106.614 40.4762 106.793 40.4381C106.597 40.359 106.411 40.2539 106.226 40.1489C105.867 39.945 105.508 39.7413 105.07 39.7295C104.595 39.7394 104.621 39.8722 104.656 40.0574C104.685 40.209 104.721 40.3958 104.495 40.5789H104.71L105.07 40.8627C105.44 40.5696 105.845 40.5374 106.25 40.5051ZM45.5664 43.7327H50.0656L49.3908 44.5217V50.4494C49.3908 53.3573 47.7424 54.4794 44.0448 54.4794C40.3473 54.4794 38.6989 53.3573 38.6989 50.4494V44.5217L38.0264 43.7327H42.5255L41.853 44.5217V50.3555C41.853 51.6653 42.7338 52.2174 44.0448 52.2174C45.3604 52.2174 46.2389 51.6653 46.2389 50.3555V44.5217L45.5664 43.7327ZM65.6801 43.7327H61.8852L62.5554 44.5217V49.8325L57.1143 43.7327H53.7043L54.3768 44.5217V53.4825L53.7043 54.2738H57.4993L56.8268 53.4825V48.0779L62.6052 54.2738H65.0076V44.5217L65.6801 43.7327ZM73.7501 53.4847L74.4226 54.2738H69.8917L70.5665 53.4847V44.524L69.8917 43.7327H74.4226L73.7501 44.524V53.4847ZM89.3623 43.7327H85.5515L86.224 44.5217L83.534 50.322L80.9414 44.5217L81.6139 43.7327H77.1329L82.1098 54.2738H84.3356L89.3623 43.7327ZM102.088 51.4127V54.2738H92.0342L92.7044 53.4847V44.524L92.0342 43.7327H102.088V46.5937L101.286 45.9299H95.8269V47.9527H99.2867L100.07 47.2889V50.7198L99.2867 50.0538H95.8269V52.0766H101.286L102.088 51.4127ZM113.71 47.1458C113.71 47.9035 112.974 48.5204 111.949 48.5204H109.918V45.9299H112.334C113.038 45.9299 113.71 46.2763 113.71 47.1458ZM117.392 54.2738L114.496 50.1163C115.92 49.5486 116.914 48.4578 116.914 46.9245C116.914 45.1699 115.825 43.7327 112.782 43.7327H106.123L106.795 44.5239V53.4825L106.123 54.2738H110.588L109.918 53.4825V50.4963H111.263L113.309 53.4825L112.639 54.2738H117.392ZM127.586 47.9505C129.553 48.583 130.917 49.5173 130.917 51.1915C130.917 53.183 129.508 54.5576 126.352 54.5576C124.817 54.5576 122.944 54.0189 122.111 53.7038L121.262 54.6202V50.7176C123.055 51.8709 125.072 52.2666 126.207 52.2666C126.657 52.2666 127.538 52.1727 127.538 51.4261C127.538 50.7949 126.783 50.5983 125.779 50.3372C125.404 50.2396 124.994 50.1329 124.577 49.9912C122.512 49.2804 121.198 48.4266 121.198 46.4663C121.198 45.0269 122.367 43.4466 126.001 43.4466C127.072 43.4466 128.625 43.8266 129.522 44.1909L130.371 43.384V46.9089C128.897 46.2137 127.011 45.7399 125.856 45.7399C124.991 45.7399 124.495 46.0237 124.495 46.435C124.495 47.1101 125.669 47.4256 126.795 47.7284C127.067 47.8015 127.336 47.8739 127.586 47.9505ZM141.747 50.4807H138.21L139.971 46.7055L141.747 50.4807ZM146.884 54.2738L141.631 43.7327H138.031L138.414 44.5239L133.661 54.2738H137.58L136.91 53.4825L137.438 52.3761H142.528L143.044 53.4825L142.369 54.2738H146.884ZM159.537 51.4127V54.2738H149.801L150.475 53.4847V44.524L149.801 43.7327H154.268L153.596 44.524V52.0766H158.736L159.537 51.4127ZM157.284 46.0126C157.284 44.8525 158.24 43.9115 159.415 43.9115C160.59 43.9115 161.546 44.8525 161.546 46.0126C161.546 47.1726 160.59 48.1136 159.415 48.1136C158.24 48.1136 157.284 47.1726 157.284 46.0126ZM157.486 46.0126C157.486 47.0631 158.346 47.9192 159.415 47.9192C160.481 47.9192 161.346 47.0631 161.346 46.0126C161.346 44.9598 160.481 44.106 159.415 44.106C158.346 44.106 157.486 44.9598 157.486 46.0126ZM159.478 44.9308C159.752 44.9308 160.006 45.0135 160.216 45.19V45.4627C160.017 45.2459 159.768 45.123 159.467 45.123C158.967 45.123 158.593 45.5432 158.593 46.0193C158.593 46.4954 158.962 46.9245 159.462 46.9245C159.766 46.9245 160.047 46.7815 160.244 46.5513V46.8262C160.026 47.0117 159.757 47.1145 159.474 47.1145C158.842 47.1145 158.385 46.6317 158.385 46.0193C158.385 45.4113 158.851 44.9308 159.478 44.9308Z" fill="#111111"/>
</svg>
