<svg xmlns="http://www.w3.org/2000/svg" viewBox="0 0 380 300" width="380" height="300" preserveAspectRatio="xMidYMid meet" style="width: 100%; height: 100%; transform: translate3d(0px, 0px, 0px); content-visibility: visible;"><defs><clipPath id="__lottie_element_27"><rect width="380" height="300" x="0" y="0"/></clipPath><mask id="__lottie_element_44" mask-type="alpha"><g transform="matrix(1.5,0,0,1.5,135.2534942626953,95.22000122070312)" opacity="1" style="display: block;"><g opacity="1" transform="matrix(1,0,0,1,36.52000045776367,36.52000045776367)"><path fill="rgb(144,103,147)" fill-opacity="1" d=" M36.27000045776367,0 C36.27000045776367,20.0310001373291 20.0310001373291,36.27000045776367 0,36.27000045776367 C-20.0310001373291,36.27000045776367 -36.27000045776367,20.0310001373291 -36.27000045776367,0 C-36.27000045776367,-20.0310001373291 -20.0310001373291,-36.27000045776367 0,-36.27000045776367 C20.0310001373291,-36.27000045776367 36.27000045776367,-20.0310001373291 36.27000045776367,0z"/></g></g></mask></defs><g clip-path="url(#__lottie_element_27)"><g transform="matrix(0.7790663838386536,0,0,0.7790663838386536,123.8947982788086,103.02774810791016)" opacity="1" style="display: block;"><g opacity="1" transform="matrix(1,0,0,1,87.41899871826172,60.292999267578125)"><path fill="rgb(216,169,106)" fill-opacity="1" d=" M0,-60.042999267578125 C-39.810001373291016,-60.042999267578125 -73.78900146484375,-35.10300064086914 -87.16899871826172,0 C-73.78900146484375,35.10200119018555 -39.810001373291016,60.042999267578125 0,60.042999267578125 C39.81100082397461,60.042999267578125 73.78800201416016,35.10200119018555 87.16899871826172,0 C73.78800201416016,-35.10300064086914 39.81100082397461,-60.042999267578125 0,-60.042999267578125z"/></g></g><g mask="url(#__lottie_element_44)" style="display: block;"><g transform="matrix(1.5,0,0,1.5,60.87150192260742,59.56050109863281)" opacity="1"><g opacity="1" transform="matrix(1,0,0,1,87.41899871826172,60.292999267578125)"><path fill="rgb(144,103,147)" fill-opacity="1" d=" M0,-60.042999267578125 C-39.810001373291016,-60.042999267578125 -73.78900146484375,-35.10300064086914 -87.16899871826172,0 C-73.78900146484375,35.10200119018555 -39.810001373291016,60.042999267578125 0,60.042999267578125 C39.81100082397461,60.042999267578125 73.78800201416016,35.10200119018555 87.16899871826172,0 C73.78800201416016,-35.10300064086914 39.81100082397461,-60.042999267578125 0,-60.042999267578125z"/></g></g></g><g transform="matrix(1.5,0,0,1.5,192.21417236328125,145.01206970214844)" opacity="1" style="display: block;"><g opacity="1" transform="matrix(1,0,0,1,36.52000045776367,36.52000045776367)"><path fill="rgb(144,103,147)" fill-opacity="1" d=" M46.122901916503906,-93.82144927978516 C46.122901916503906,-93.62995910644531 45.9676628112793,20.31796646118164 45.77617263793945,20.31796646118164 C45.584686279296875,20.31796646118164 -119.66805267333984,20.162729263305664 -119.66805267333984,19.971240997314453 C-119.66805267333984,19.779752731323242 -119.5128173828125,-94.16817474365234 -119.32132720947266,-94.16817474365234 C-119.12983703613281,-94.16817474365234 46.122901916503906,-94.012939453125 46.122901916503906,-93.82144927978516z"/></g></g><g transform="matrix(1.0105177164077759,0,0,1.5,190.8395233154297,150)" opacity="1" style="display: block;"><g opacity="1" transform="matrix(1,0,0,0.5539399981498718,1.3769999742507935,75.6050033569336)"><path fill="rgb(232,84,91)" fill-opacity="1" d=" M2.490625418985438e-15,-40.67499923706055 C2.490625418985438e-15,-40.67499923706055 35.225582122802734,20.337499618530273 35.225582122802734,20.337499618530273 C35.225582122802734,20.337499618530273 -35.225582122802734,20.337499618530273 -35.225582122802734,20.337499618530273 C-35.225582122802734,20.337499618530273 2.490625418985438e-15,-40.67499923706055 2.490625418985438e-15,-40.67499923706055z"/></g></g><g transform="matrix(1.5,0,0,1.5,192,159)" opacity="1" style="display: block;"><g opacity="1" transform="matrix(1,0,0,1,0,0)"><path fill="rgb(101,120,193)" fill-opacity="1" d=" M-63,-39 C-63,-39 -54.46900177001953,-39.01900100708008 -42.095001220703125,-39.04600143432617"/><path stroke-linecap="butt" stroke-linejoin="miter" fill-opacity="0" stroke-miterlimit="4" stroke="rgb(216,169,106)" stroke-opacity="1" stroke-width="14" d=" M-63,-39 C-63,-39 -54.46900177001953,-39.01900100708008 -42.095001220703125,-39.04600143432617"/></g><g opacity="1" transform="matrix(1,0,0,1,0,0)"><path fill="rgb(101,120,193)" fill-opacity="1" d="M0 0"/><path stroke-linecap="butt" stroke-linejoin="miter" fill-opacity="0" stroke-miterlimit="4" stroke="rgb(216,169,106)" stroke-opacity="1" stroke-width="14" d="M0 0"/></g></g><g transform="matrix(1.5,0,0,1.5,192,197.25)" opacity="1" style="display: block;"><g opacity="1" transform="matrix(1,0,0,1,0,0)"><path fill="rgb(101,120,193)" fill-opacity="1" d=" M-63,-39 C-63,-39 -54.108001708984375,-39.05400085449219 -42.18000030517578,-39.12699890136719"/><path stroke-linecap="butt" stroke-linejoin="miter" fill-opacity="0" stroke-miterlimit="4" stroke="rgb(216,169,106)" stroke-opacity="1" stroke-width="14" d=" M-63,-39 C-63,-39 -54.108001708984375,-39.05400085449219 -42.18000030517578,-39.12699890136719"/></g><g opacity="1" transform="matrix(1,0,0,1,0,0)"><path fill="rgb(101,120,193)" fill-opacity="1" d="M0 0"/><path stroke-linecap="butt" stroke-linejoin="miter" fill-opacity="0" stroke-miterlimit="4" stroke="rgb(216,169,106)" stroke-opacity="1" stroke-width="14" d="M0 0"/></g></g><g transform="matrix(1.5,0,0,1.5,192,234.75)" opacity="1" style="display: block;"><g opacity="1" transform="matrix(1,0,0,1,0,0)"><path fill="rgb(101,120,193)" fill-opacity="1" d=" M-63,-39 C-63,-39 -57.19900131225586,-39.05400085449219 -49.41600036621094,-39.12699890136719"/><path stroke-linecap="butt" stroke-linejoin="miter" fill-opacity="0" stroke-miterlimit="4" stroke="rgb(216,169,106)" stroke-opacity="1" stroke-width="14" d=" M-63,-39 C-63,-39 -57.19900131225586,-39.05400085449219 -49.41600036621094,-39.12699890136719"/></g><g opacity="1" transform="matrix(1,0,0,1,0,0)"><path fill="rgb(101,120,193)" fill-opacity="1" d="M0 0"/><path stroke-linecap="butt" stroke-linejoin="miter" fill-opacity="0" stroke-miterlimit="4" stroke="rgb(216,169,106)" stroke-opacity="1" stroke-width="14" d="M0 0"/></g></g></g></svg>