<svg width="200" height="100" viewBox="0 0 200 100" fill="none" xmlns="http://www.w3.org/2000/svg">
<path fill-rule="evenodd" clip-rule="evenodd" d="M99.9514 18.1025C117.436 18.1025 131.8 32.4445 131.8 49.9515C131.8 67.4362 117.436 81.8004 99.9514 81.8004C82.444 81.8004 68.1021 67.4362 68.1021 49.9515C68.1021 32.4445 82.4444 18.1025 99.9514 18.1025ZM99.9514 20.145C91.5793 20.145 83.4096 23.7807 77.7982 29.9982C72.9052 35.4521 70.1671 42.6344 70.1671 49.9515C70.1671 58.3232 73.781 66.4714 80.0204 72.0824C85.452 76.9754 92.6343 79.7361 99.9514 79.7361C108.323 79.7361 116.493 76.0997 122.082 69.8829C126.997 64.4513 129.736 57.2689 129.736 49.9515C129.736 41.5571 126.121 33.4097 119.882 27.7983C114.451 22.9057 107.268 20.145 99.9514 20.145ZM94.6545 22.9057H100.737C102.443 22.9057 104.44 23.1748 104.44 25.3075C104.44 26.3621 103.812 26.9234 102.892 27.3273C104.171 27.6191 104.979 28.5616 104.979 29.9088C104.979 32.0188 103.386 32.7816 101.522 32.7816H94.6545V22.9057ZM79.1005 44.8792H73.0177V54.7324H79.886C81.7488 54.7324 83.3424 53.9692 83.3424 51.8596C83.3424 50.535 82.5343 49.5699 81.255 49.2781C82.1753 48.8969 82.8038 48.3356 82.8038 47.2583C82.8038 45.1487 80.8062 44.8792 79.1005 44.8792ZM91.0633 44.8792L95.9114 54.732H93.128L92.2304 52.7794H87.2476L86.35 54.732H83.567L88.4147 44.8792H91.0633ZM99.7272 48.7844L102.623 44.8792H105.652L100.962 50.9612V54.732H98.4925V50.9612L93.8018 44.8792H96.8317L99.7272 48.7844ZM115.708 52.9587V54.732H106.146V44.8792H115.439V46.6521H108.638V48.807H115.214V50.58H108.638V52.9587H115.708ZM119.657 54.732V50.8042H122.508L125.089 54.732H128.029L125.089 50.8042C126.66 50.4675 127.648 49.5476 127.648 47.8192C127.648 45.5526 125.74 44.8792 123.81 44.8792H117.189V54.732H119.657ZM105.989 43.7343L101.164 33.8811H98.5152L93.6671 43.7343H96.4274L97.3481 41.7817H102.331L103.228 43.7343H105.989ZM105.361 63.8673V65.6406H95.1256V55.7874H105.114V57.5607H97.6172V59.7149H104.889V61.4882H97.6172V63.8673H105.361ZM97.6172 76.6383V72.7104V72.71H100.446L103.049 76.6379H105.989L103.049 72.71C104.62 72.3741 105.585 71.4308 105.585 69.7024C105.585 67.4362 103.699 66.7624 101.769 66.7624H95.1256V76.6383H97.6172ZM97.1235 26.6988H100.736C101.41 26.6988 101.993 26.4746 102.061 25.7336C102.106 24.881 101.433 24.7013 100.736 24.7013H97.1235V26.6988ZM123.541 49.0312H119.657V46.6521H123.541C124.349 46.6521 125.134 46.8767 125.134 47.8419C125.134 48.807 124.327 49.0312 123.541 49.0312ZM79.1001 48.6723H75.4867V46.6525H79.1001C79.7962 46.6525 80.4692 46.8544 80.402 47.6849C80.3571 48.4481 79.7735 48.6723 79.1001 48.6723ZM89.7615 47.4153L91.4223 51.0061H88.078L89.7166 47.4153L89.7392 47.4376L89.7615 47.4153ZM75.4867 52.9587H79.1001C80.0204 52.9587 80.8059 52.6892 80.8059 51.635C80.8059 50.4897 80.043 50.378 79.1001 50.378H75.4867V52.9587ZM100.736 30.9856H97.1235V28.4272H100.736C101.68 28.4272 102.465 28.5393 102.465 29.6615C102.465 30.7165 101.68 30.9856 100.736 30.9856ZM101.5 39.9862L99.8393 36.395V36.4399L99.817 36.395L98.1558 39.9862H101.5ZM101.477 70.9145H97.6172V68.558H101.477C102.285 68.558 103.071 68.7822 103.071 69.7474C103.071 70.6903 102.285 70.9145 101.477 70.9145Z" fill="#111111"/>
</svg>
